<svg xmlns="http://www.w3.org/2000/svg"  viewBox="0 0 17.478 24.333">
  <g id="alarm" transform="translate(-11.86 -1.999)">
    <path id="Path_1019" data-name="Path 1019" d="M53.887,25.843a.348.348,0,0,1-.348-.348v-.278a5.909,5.909,0,0,0-.049-.765.348.348,0,1,1,.689-.09,6.473,6.473,0,0,1,.055.848v.285A.348.348,0,0,1,53.887,25.843Z" transform="translate(-27.156 -14.385)" fill="#1e1e1e"/>
    <path id="Path_1020" data-name="Path 1020" d="M28.073,27.846H13.125a1.269,1.269,0,0,1-1.265-1.269,11.722,11.722,0,0,1,1.157-5.07,10.987,10.987,0,0,0,1.1-4.771V15.228a6.483,6.483,0,0,1,12.07-3.291.348.348,0,1,1-.6.353,5.787,5.787,0,0,0-10.776,2.938v1.509A11.683,11.683,0,0,1,13.651,21.8a11.019,11.019,0,0,0-1.1,4.773.574.574,0,0,0,.57.581H28.073a.568.568,0,0,0,.4-.17.576.576,0,0,0,.166-.4,10.894,10.894,0,0,0-1.1-4.771l-.067-.143a.348.348,0,1,1,.623-.309l.07.147a11.6,11.6,0,0,1,1.166,5.075,1.267,1.267,0,0,1-1.265,1.27Z" transform="translate(0 -4.399)" fill="#1e1e1e"/>
    <path id="Path_1021" data-name="Path 1021" d="M54.431,36.535a.348.348,0,0,1-.339-.27c-.079-.343-.141-.7-.19-1.084a.348.348,0,0,1,.69-.088,10.261,10.261,0,0,0,.178,1.016.348.348,0,0,1-.261.417.351.351,0,0,1-.078.008Z" transform="translate(-27.426 -21.392)" fill="#1e1e1e"/>
    <path id="Path_1022" data-name="Path 1022" d="M21.531,28.284a.348.348,0,0,1-.322-.48,12.837,12.837,0,0,0,.957-4.827V21.469a4.733,4.733,0,0,1,1.206-3.15.348.348,0,0,1,.519.463,4.036,4.036,0,0,0-1.03,2.688v1.509a13.529,13.529,0,0,1-1.01,5.09A.348.348,0,0,1,21.531,28.284Z" transform="translate(-6.082 -10.571)" fill="#1e1e1e"/>
    <path id="Path_1023" data-name="Path 1023" d="M31.625,65.28a3.238,3.238,0,0,1-3.233-3.233.348.348,0,0,1,.7,0,2.539,2.539,0,1,0,5.078,0,.348.348,0,0,1,.7,0A3.238,3.238,0,0,1,31.625,65.28Z" transform="translate(-10.785 -38.948)" fill="#1e1e1e"/>
    <path id="Path_1024" data-name="Path 1024" d="M35.014,5.232a.348.348,0,0,1-.348-.348V3.868a1.174,1.174,0,0,0-2.348,0V4.882a.348.348,0,1,1-.7,0V3.868a1.869,1.869,0,1,1,3.738,0V4.885A.348.348,0,0,1,35.014,5.232Z" transform="translate(-12.893)" fill="#1e1e1e"/>
  </g>
</svg>
