<svg xmlns="http://www.w3.org/2000/svg" xmlns:xlink="http://www.w3.org/1999/xlink" width="39" height="36" viewBox="0 0 39 36">
  <defs>
    <filter id="Rectangle_181" x="0" y="0" width="39" height="36" filterUnits="userSpaceOnUse">
      <feOffset dy="4" input="SourceAlpha"/>
      <feGaussianBlur stdDeviation="1.5" result="blur"/>
      <feFlood flood-opacity="0.051"/>
      <feComposite operator="in" in2="blur"/>
      <feComposite in="SourceGraphic"/>
    </filter>
  </defs>
  <g id="Group_65895" data-name="Group 65895" transform="translate(-321.5 -826.5)">
    <g transform="matrix(1, 0, 0, 1, 321.5, 826.5)" filter="url(#Rectangle_181)">
      <rect id="Rectangle_181-2" data-name="Rectangle 181" width="30" height="27" transform="translate(4.5 0.5)" fill="#e8edfe"/>
    </g>
    <g id="Group_65894" data-name="Group 65894" transform="translate(159 579)">
      <path id="Vector" d="M2.717,1.358A1.358,1.358,0,1,1,1.358,0,1.358,1.358,0,0,1,2.717,1.358Z" transform="translate(180.642 263.742)" fill="#fcc74c"/>
      <path id="Vector-2" data-name="Vector" d="M13.567,6.275V5.233C13.567,2.983,13.025,0,8.333,0S3.1,2.983,3.1,5.233V6.275C.767,6.567,0,7.75,0,10.658v1.55c0,3.417,1.042,4.458,4.458,4.458h7.75c3.417,0,4.458-1.042,4.458-4.458v-1.55C16.667,7.75,15.9,6.567,13.567,6.275ZM8.333,13.95a2.517,2.517,0,1,1,2.517-2.517A2.52,2.52,0,0,1,8.333,13.95ZM4.458,6.2H4.267V5.233c0-2.442.692-4.067,4.067-4.067S12.4,2.792,12.4,5.233v.975H4.458Z" transform="translate(173.667 253.667)" fill="#fcc74c"/>
    </g>
  </g>
</svg>
