<svg xmlns="http://www.w3.org/2000/svg" width="16.175" height="17.646" viewBox="0 0 16.175 17.646"><path d="M7.433,15.661a3.129,3.129,0,0,1-3.125-3.125V5H3.022A2.024,2.024,0,0,0,1,7.022v9.926A2.024,2.024,0,0,0,3.022,18.97h9.191a2.024,2.024,0,0,0,2.022-2.022V15.661Z" transform="translate(-1 -1.324)" fill="#fcfcfc"/><path d="M18.764,2.022A2.022,2.022,0,0,0,16.742,0H9.022A2.022,2.022,0,0,0,7,2.022v9.191a2.022,2.022,0,0,0,2.022,2.022h7.72a2.022,2.022,0,0,0,2.022-2.022Z" transform="translate(-2.589)" fill="#fcfcfc"/></svg>