<svg xmlns="http://www.w3.org/2000/svg" width="26.657" height="29.248" viewBox="0 0 26.657 29.248"><path d="M172.236,128.651a14.515,14.515,0,0,1-6-1.285.418.418,0,1,1,.344-.762,13.829,13.829,0,0,0,11.211.047c.348-.153.693-.323,1.027-.5a.418.418,0,1,1,.4.734c-.353.193-.72.372-1.089.535A14.514,14.514,0,0,1,172.236,128.651Z" transform="translate(-160.202 -99.403)" fill="#32ba7c"/><g transform="translate(0 2.813)"><circle cx="12.033" cy="12.033" r="12.033" fill="#32ba7c"/><path d="M171.684,106.428l6.188,6.184A12.025,12.025,0,0,0,186.793,101v-.342l-4.858-4.477Z" transform="translate(-162.725 -88.965)" fill="#0aa06e"/><g transform="translate(4.043 5.941)"><path d="M171.154,105.489a1.421,1.421,0,0,1,0,1.974l-1.1,1.1a1.421,1.421,0,0,1-1.974,0l-4.821-4.859a1.421,1.421,0,0,1,0-1.974l1.1-1.1a1.421,1.421,0,0,1,1.974,0Z" transform="translate(-162.859 -96.701)" fill="#fff"/><path d="M178.356,94.293a1.421,1.421,0,0,1,1.974,0l1.1,1.1a1.421,1.421,0,0,1,0,1.974l-8.352,8.314a1.421,1.421,0,0,1-1.974,0l-1.1-1.1a1.421,1.421,0,0,1,0-1.974Z" transform="translate(-165.847 -93.895)" fill="#fff"/></g></g><path d="M169.83,78.181a14.64,14.64,0,0,0-6.97,1.765q-.453.246-.886.522-.319.2-.627.423l-.006,0a1.736,1.736,0,0,0-.681,1.113c-.035.2-.07.4-.1.6.15-.137.3-.276.456-.407.263-.219.539-.432.82-.632q.29-.207.591-.4.408-.26.836-.492a13.79,13.79,0,0,1,15.215,22.868c-.287.231-.586.452-.887.658a.418.418,0,0,0,.47.691c.32-.218.637-.453.941-.7a14.625,14.625,0,0,0-9.167-26.019Z" transform="translate(-157.796 -78.181)" fill="#fcd462"/></svg>