<svg id="facebook-icon" xmlns="http://www.w3.org/2000/svg" viewBox="0 0 25 25">
  <path id="Path_125594" data-name="Path 125594" d="M23.62,25A1.38,1.38,0,0,0,25,23.62V1.38A1.38,1.38,0,0,0,23.62,0H1.38A1.38,1.38,0,0,0,0,1.38V23.62A1.38,1.38,0,0,0,1.38,25H23.62Z" transform="translate(0 0)" fill="#485a96"/>
  <path id="Path_125595" data-name="Path 125595" d="M114.928,61.534V51.853h3.25l.486-3.773h-3.736V45.671c0-1.092.3-1.837,1.87-1.837h2V40.459a26.734,26.734,0,0,0-2.911-.149c-2.881,0-4.853,1.758-4.853,4.987V48.08h-3.258v3.773h3.258v9.681h3.9Z" transform="translate(-97.679 -36.534)" fill="#fff"/>
</svg>
