<svg xmlns="http://www.w3.org/2000/svg" viewBox="0 0 10.849 8.817">
  <g id="Group_728" data-name="Group 728" transform="translate(-183.151 -114)">
    <path id="Path_1026" data-name="Path 1026" d="M288.763,96.6h-.814V95.517a.543.543,0,0,0-.966-.339l-2.17,2.713a.543.543,0,0,0,.014.7l2.17,2.5a.543.543,0,0,0,.952-.356v-.868h1.085c1.047,0,2.708.921,2.708,3.391a.543.543,0,0,0,1.012.273,4.613,4.613,0,0,0-3.991-6.92Z" transform="translate(-99.371 19.026)"/> 
    <path id="Path_1027" data-name="Path 1027" d="M96.113,98.129l1.9-2.374a.543.543,0,1,0-.848-.678l-2.17,2.713a.543.543,0,0,0,0,.678l2.17,2.713a.543.543,0,1,0,.848-.678Z" transform="translate(88.275 19.127)" />
  </g>
</svg>
