<svg id="google-icon" xmlns="http://www.w3.org/2000/svg" viewBox="0 0 25 25.51">
  <path id="Path_125596" data-name="Path 125596" d="M142.795,109.369a10.931,10.931,0,0,0-.269-2.608H130.55v4.734h7.029a6.233,6.233,0,0,1-2.608,4.138l-.024.158,3.786,2.933.262.026a12.471,12.471,0,0,0,3.8-9.382" transform="translate(-117.795 -96.33)" fill="#4285f4"/>
  <path id="Path_125597" data-name="Path 125597" d="M25.32,166.6a12.157,12.157,0,0,0,8.447-3.09l-4.025-3.118a7.549,7.549,0,0,1-4.422,1.276,7.679,7.679,0,0,1-7.256-5.3l-.15.013-3.937,3.047-.051.143A12.746,12.746,0,0,0,25.32,166.6" transform="translate(-12.564 -141.092)" fill="#34a853"/>
  <path id="Path_125598" data-name="Path 125598" d="M5.5,79.622A7.852,7.852,0,0,1,5.074,77.1a8.251,8.251,0,0,1,.411-2.523l-.007-.169-3.987-3.1-.13.062a12.728,12.728,0,0,0,0,11.451l4.138-3.2" transform="translate(0 -64.345)" fill="#fbbc05"/>
  <path id="Path_125599" data-name="Path 125599" d="M25.32,4.932a7.069,7.069,0,0,1,4.932,1.9l3.6-3.515A12.255,12.255,0,0,0,25.32,0,12.746,12.746,0,0,0,13.925,7.029l4.124,3.2a7.71,7.71,0,0,1,7.27-5.3" transform="translate(-12.564)" fill="#eb4335"/>
</svg>
