<!-- <svg xmlns="http://www.w3.org/2000/svg" width="42.538" height="31.844" viewBox="0 0 42.538 31.844"> -->
<svg xmlns="http://www.w3.org/2000/svg" viewBox="0 0 42.538 31.844">
  <g id="Group_407" data-name="Group 407" transform="translate(-0.011 282.65)">
    <path id="Path_487" data-name="Path 487" d="M172.472-281.953a2.132,2.132,0,0,1,2.131,2.131,2.132,2.132,0,0,1-2.131,2.131,2.132,2.132,0,0,1-2.131-2.131A2.132,2.132,0,0,1,172.472-281.953Z" transform="translate(-152.339 -0.618)" fill="#215296" fill-rule="evenodd"/>
    <path id="Path_488" data-name="Path 488" d="M171.854-282.65a2.211,2.211,0,0,0-2.21,2.21,2.211,2.211,0,0,0,2.21,2.21,2.211,2.211,0,0,0,2.21-2.21A2.211,2.211,0,0,0,171.854-282.65Zm0,.157a2.054,2.054,0,0,1,2.053,2.053,2.054,2.054,0,0,1-2.053,2.053,2.054,2.054,0,0,1-2.053-2.053A2.054,2.054,0,0,1,171.854-282.493Z" transform="translate(-151.72 0)" fill="#215296" fill-rule="evenodd"/>
    <path id="Path_489" data-name="Path 489" d="M123.006-253.453a18.115,18.115,0,0,0,13.745.075l1.1,1.742s-3.952-.52-5.661,2.012q-.213.316-.438.623a5.338,5.338,0,0,0-.83,4.237l.225.676a7.719,7.719,0,0,0-2.253.056s1.267-3.662-1.408-6.027-4.76-1.859-5.07-1.746S123.006-253.453,123.006-253.453Z" transform="translate(-109.743 -25.908)" fill="#215296" fill-rule="evenodd"/>
    <path id="Path_490" data-name="Path 490" d="M130.382-245.4l.224.671a.079.079,0,0,1-.013.073.078.078,0,0,1-.068.03s-.974-.082-1.645-.055a2.556,2.556,0,0,0-.424.045.3.3,0,0,0-.125.047.078.078,0,0,1-.1.007.078.078,0,0,1-.031-.091s1.252-3.61-1.386-5.943-4.686-1.842-4.991-1.731a.124.124,0,0,1-.109,0,.114.114,0,0,1-.051-.062.305.305,0,0,1,0-.149,10.22,10.22,0,0,1,.656-1.541.079.079,0,0,1,.106-.034,18.042,18.042,0,0,0,13.682.072.078.078,0,0,1,.094.032l1.1,1.742a.079.079,0,0,1,0,.084.079.079,0,0,1-.076.035,8.437,8.437,0,0,0-2.9.208,4.521,4.521,0,0,0-2.686,1.77q-.214.317-.44.626A5.262,5.262,0,0,0,130.382-245.4Zm-7.955-8.565a12.132,12.132,0,0,0-.561,1.262,1.328,1.328,0,0,0-.045.192c.441-.137,2.5-.526,5.1,1.777,2.376,2.1,1.688,5.209,1.48,5.949l.019,0a2.716,2.716,0,0,1,.452-.048c.536-.022,1.264.025,1.546.046l-.188-.564,0-.01a5.413,5.413,0,0,1,.843-4.3q.225-.306.437-.62a4.677,4.677,0,0,1,2.776-1.834,8.668,8.668,0,0,1,2.8-.228L136.1-253.9A18.316,18.316,0,0,1,122.427-253.967Z" transform="translate(-109.129 -25.289)" fill="#215296" fill-rule="evenodd"/>
    <path id="Path_491" data-name="Path 491" d="M304.539-221.569a2.132,2.132,0,0,1-.241,3,2.132,2.132,0,0,1-3-.241,2.132,2.132,0,0,1,.241-3A2.132,2.132,0,0,1,304.539-221.569Z" transform="translate(-269.005 -53.535)" fill="#215296" fill-rule="evenodd"/>
    <path id="Path_492" data-name="Path 492" d="M303.981-222.239a2.211,2.211,0,0,0-3.115-.25,2.211,2.211,0,0,0-.25,3.115,2.211,2.211,0,0,0,3.115.25A2.211,2.211,0,0,0,303.981-222.239Zm-.12.1a2.054,2.054,0,0,1-.232,2.894,2.054,2.054,0,0,1-2.894-.232,2.054,2.054,0,0,1,.232-2.894A2.054,2.054,0,0,1,303.861-222.137Z" transform="translate(-268.39 -52.916)" fill="#215296" fill-rule="evenodd"/>
    <path id="Path_493" data-name="Path 493" d="M246.365-243.7a18.115,18.115,0,0,0,8.854,10.513l-.614,1.965s-2.166-3.346-5.2-3.005q-.379.043-.759.07a5.337,5.337,0,0,0-3.764,2.116l-.369.61s-1.168-1.632-1.5-1.679c0,0,3.609-1.409,3.676-4.98s-1.671-4.829-1.958-4.992S246.365-243.7,246.365-243.7Z" transform="translate(-218.171 -34.565)" fill="#215296" fill-rule="evenodd"/>
    <path id="Path_494" data-name="Path 494" d="M244.328-232.61l-.366.605a.079.079,0,0,1-.064.038.079.079,0,0,1-.067-.033,16.457,16.457,0,0,0-1.025-1.288,2.556,2.556,0,0,0-.309-.294.3.3,0,0,0-.117-.065.079.079,0,0,1-.067-.069.079.079,0,0,1,.049-.082s3.56-1.388,3.626-4.909-1.635-4.762-1.918-4.922a.125.125,0,0,1-.067-.086.114.114,0,0,1,.014-.079.3.3,0,0,1,.112-.1,10.223,10.223,0,0,1,1.6-.5.079.079,0,0,1,.095.058,18.042,18.042,0,0,0,8.816,10.463.079.079,0,0,1,.037.092l-.614,1.966a.078.078,0,0,1-.064.054.079.079,0,0,1-.077-.035,8.434,8.434,0,0,0-2.038-2.073,4.521,4.521,0,0,0-3.089-.9q-.38.043-.762.07A5.261,5.261,0,0,0,244.328-232.61Zm1.363-11.61a12.123,12.123,0,0,0-1.324.391,1.326,1.326,0,0,0-.175.09c.39.247,2.019,1.56,1.954,5.036-.059,3.171-2.871,4.662-3.57,4.984l.016.012a2.719,2.719,0,0,1,.33.313c.364.394.8.979.967,1.207l.307-.509.006-.008a5.414,5.414,0,0,1,3.82-2.145q.378-.027.756-.07a4.677,4.677,0,0,1,3.2.924,8.671,8.671,0,0,1,1.988,1.982l.547-1.751A18.315,18.315,0,0,1,245.69-244.22Z" transform="translate(-217.553 -33.947)" fill="#215296" fill-rule="evenodd"/>
    <path id="Path_495" data-name="Path 495" d="M42.8-221.569a2.132,2.132,0,0,0,.241,3,2.132,2.132,0,0,0,3-.241,2.132,2.132,0,0,0-.241-3A2.132,2.132,0,0,0,42.8-221.569Z" transform="translate(-37.514 -53.535)" fill="#215296" fill-rule="evenodd"/>
    <path id="Path_496" data-name="Path 496" d="M42.119-222.239a2.211,2.211,0,0,0,.25,3.115,2.211,2.211,0,0,0,3.115-.25,2.211,2.211,0,0,0-.25-3.115A2.211,2.211,0,0,0,42.119-222.239Zm.12.1a2.054,2.054,0,0,1,2.894-.232,2.054,2.054,0,0,1,.232,2.894,2.054,2.054,0,0,1-2.894.232A2.054,2.054,0,0,1,42.238-222.137Z" transform="translate(-36.896 -52.916)" fill="#215296" fill-rule="evenodd"/>
    <path id="Path_497" data-name="Path 497" d="M38.364-243.7a18.115,18.115,0,0,1-8.854,10.513l.614,1.965s2.166-3.346,5.2-3.005q.379.043.759.07a5.338,5.338,0,0,1,3.764,2.116l.369.61s1.168-1.632,1.5-1.679c0,0-3.609-1.409-3.676-4.98s1.671-4.829,1.958-4.992S38.364-243.7,38.364-243.7Z" transform="translate(-26.175 -34.565)" fill="#215296" fill-rule="evenodd"/>
    <path id="Path_498" data-name="Path 498" d="M39.193-232.61a5.261,5.261,0,0,0-3.705-2.083q-.382-.027-.762-.07a4.521,4.521,0,0,0-3.089.9,8.436,8.436,0,0,0-2.038,2.073.079.079,0,0,1-.077.035.079.079,0,0,1-.064-.054l-.614-1.966.037-.092A18.042,18.042,0,0,0,37.7-244.333a.079.079,0,0,1,.095-.058,10.226,10.226,0,0,1,1.6.5.3.3,0,0,1,.112.1.114.114,0,0,1,.014.079.125.125,0,0,1-.067.086c-.282.16-1.983,1.4-1.918,4.922s3.626,4.909,3.626,4.909a.078.078,0,0,1,.049.082.079.079,0,0,1-.067.069.3.3,0,0,0-.117.065,2.555,2.555,0,0,0-.309.294A16.452,16.452,0,0,0,39.69-232a.079.079,0,0,1-.067.033.079.079,0,0,1-.064-.038ZM37.83-244.22a18.315,18.315,0,0,1-8.817,10.456l.547,1.751a8.67,8.67,0,0,1,1.988-1.982,4.677,4.677,0,0,1,3.2-.924q.377.043.755.07a5.414,5.414,0,0,1,3.82,2.145l.006.008.307.509c.167-.228.6-.813.967-1.207a2.71,2.71,0,0,1,.33-.313l.016-.012c-.7-.322-3.511-1.813-3.57-4.984-.065-3.476,1.564-4.789,1.954-5.036a1.329,1.329,0,0,0-.175-.09A12.127,12.127,0,0,0,37.83-244.22Z" transform="translate(-25.585 -33.947)" fill="#215296" fill-rule="evenodd"/>
    <path id="Path_499" data-name="Path 499" d="M128.162-161.554A8.381,8.381,0,0,1,135.1-165.2a8.381,8.381,0,0,1,6.941,3.649Z" transform="translate(-114.893 -104.215)" fill="#215296" fill-rule="evenodd"/>
    <path id="Path_500" data-name="Path 500" d="M127.478-162.217a.078.078,0,0,0,0,.081.078.078,0,0,0,.069.042h13.882a.078.078,0,0,0,.069-.042.078.078,0,0,0,0-.081,8.46,8.46,0,0,0-7.006-3.683A8.459,8.459,0,0,0,127.478-162.217Zm13.8-.034a8.3,8.3,0,0,0-6.791-3.492,8.3,8.3,0,0,0-6.791,3.492Z" transform="translate(-114.274 -103.597)" fill="#215296" fill-rule="evenodd"/>
    <path id="Path_501" data-name="Path 501" d="M127.491-129.213a.84.84,0,0,1,.407-.105h6.557v4.056h-5.633a.62.62,0,0,0-.62.62v8.619h-3.774v-8.619a.62.62,0,0,0-.62-.62h-5.633v-4.056h6.469a.84.84,0,0,1,.4.1l.841.453a.84.84,0,0,0,.805,0Z" transform="translate(-106.03 -136.057)" fill="#215296" fill-rule="evenodd"/>
    <path id="Path_502" data-name="Path 502" d="M126.835-129.9l-.8.444a.761.761,0,0,1-.73,0l-.841-.453a.918.918,0,0,0-.436-.11h-6.469a.079.079,0,0,0-.079.079v4.056a.079.079,0,0,0,.079.079h5.633a.541.541,0,0,1,.541.541v8.619a.079.079,0,0,0,.079.079h3.774a.079.079,0,0,0,.079-.079v-8.619a.541.541,0,0,1,.541-.541h5.633a.079.079,0,0,0,.079-.079v-4.056a.079.079,0,0,0-.079-.079h-6.557A.918.918,0,0,0,126.835-129.9Zm-9.2.042v3.9h5.555a.7.7,0,0,1,.7.7v8.54H127.5v-8.54a.7.7,0,0,1,.7-.7h5.555v-3.9h-6.479a.762.762,0,0,0-.369.1l-.8.444a.918.918,0,0,1-.88,0l-.841-.453a.761.761,0,0,0-.361-.091Z" transform="translate(-105.411 -135.439)" fill="#215296" fill-rule="evenodd"/>
    <path id="Path_503" data-name="Path 503" d="M25.444-139.7a3.871,3.871,0,0,0-5.95.645h0a.965.965,0,0,0-.21.7c.05.493.4,1.23,1.925,1.547a10.508,10.508,0,0,1,1.845.574c.925.37,2.021.954,2.288,1.644.479,1.239.76,1.754-.817,4.614,0,0,.479-3.277-2.72-3.578q-.131-.012-.262-.033c-.629-.1-4.085-.709-4.972-1.577q-.2-.195-.408-.38c-.436-.4-1.15-1.475.7-3.574h0a8.49,8.49,0,0,1,6.744-2.486,2.127,2.127,0,0,1,1.643,1.038A1.209,1.209,0,0,1,25.444-139.7Z" transform="translate(-13.881 -125.128)" fill="#215296" fill-rule="evenodd"/>
    <path id="Path_504" data-name="Path 504" d="M24.771-140.257a.079.079,0,0,0,.078.018.079.079,0,0,0,.054-.059,1.288,1.288,0,0,0-.2-.924,2.2,2.2,0,0,0-1.7-1.075,8.57,8.57,0,0,0-6.809,2.512h0a3.927,3.927,0,0,0-1.227,2.477,1.6,1.6,0,0,0,.533,1.207q.208.185.406.378a4.014,4.014,0,0,0,1.375.723,24.009,24.009,0,0,0,3.64.876q.133.021.267.034c3.118.294,2.649,3.489,2.649,3.489a.079.079,0,0,0,.053.086.079.079,0,0,0,.094-.036c.958-1.737,1.234-2.622,1.2-3.32a4.271,4.271,0,0,0-.379-1.36,1.994,1.994,0,0,0-.68-.8,7.3,7.3,0,0,0-1.652-.884,10.584,10.584,0,0,0-1.858-.578c-1.473-.3-1.815-1-1.863-1.478a.886.886,0,0,1,.193-.643h0a4.337,4.337,0,0,1,2.517-1.69A4.129,4.129,0,0,1,24.771-140.257Zm-.006-.214a1.226,1.226,0,0,0-.2-.67,2.048,2.048,0,0,0-1.582-1,8.41,8.41,0,0,0-6.678,2.46,3.788,3.788,0,0,0-1.188,2.373,1.446,1.446,0,0,0,.481,1.09q.21.186.41.382a3.856,3.856,0,0,0,1.318.687,23.812,23.812,0,0,0,3.612.869q.128.021.257.033a2.975,2.975,0,0,1,2.815,3.3,5.987,5.987,0,0,0,1.009-2.922,4.124,4.124,0,0,0-.368-1.311,1.837,1.837,0,0,0-.629-.736,7.14,7.14,0,0,0-1.616-.863,10.43,10.43,0,0,0-1.831-.57c-1.587-.328-1.936-1.1-1.987-1.616a1.043,1.043,0,0,1,.228-.757h0a4.485,4.485,0,0,1,2.609-1.745A4.222,4.222,0,0,1,24.765-140.471Z" transform="translate(-13.263 -124.51)" fill="#215296" fill-rule="evenodd"/>
    <path id="Path_505" data-name="Path 505" d="M1.722-104.591A3.492,3.492,0,0,0,5.2-100.916q.188.008.376.032c.916.122,5.125.8,5.159,2.677.038,2.1-2.216,3.753-4.018,4.582,0,0-4.694,2.293-6.009-1.2,0,0,2.342,2.306,4.714.522q.128-.1.265-.18c.622-.386,2.535-1.813-.06-3.159a9.42,9.42,0,0,1-3.781-1.614,3.023,3.023,0,0,1-1.085-2.5A4.411,4.411,0,0,1,1.722-104.591Z" transform="translate(-0.618 -157.998)" fill="#215296" fill-rule="evenodd"/>
    <path id="Path_506" data-name="Path 506" d="M4.983-98.184a9.469,9.469,0,0,1-3.805-1.629,3.1,3.1,0,0,1-1.114-2.568,4.5,4.5,0,0,1,.987-2.887.078.078,0,0,1,.086-.013.078.078,0,0,1,.045.074,3.839,3.839,0,0,0,1.1,2.749,3.53,3.53,0,0,0,2.3.845q.192.008.383.032a13.885,13.885,0,0,1,3.615.967c.9.423,1.6,1.01,1.612,1.787a3.619,3.619,0,0,1-.9,2.333,9.022,9.022,0,0,1-3.166,2.32,8.5,8.5,0,0,1-2.538.718,3.112,3.112,0,0,1-3.579-1.96.078.078,0,0,1,.031-.093.078.078,0,0,1,.1.01s2.291,2.26,4.612.516c.087-.066.178-.128.271-.184a3.672,3.672,0,0,0,.883-.752,1.4,1.4,0,0,0,.341-.763C6.284-97.153,5.97-97.67,4.983-98.184Zm-3.956-6.837a4.691,4.691,0,0,0-.806,2.65,2.945,2.945,0,0,0,1.057,2.438,9.32,9.32,0,0,0,3.744,1.6l.023.008c1.08.56,1.4,1.144,1.363,1.657a1.553,1.553,0,0,1-.376.851,3.844,3.844,0,0,1-.923.787q-.133.081-.259.176a3.638,3.638,0,0,1-4.556-.306,3,3,0,0,0,3.284,1.552,8.326,8.326,0,0,0,2.487-.7,8.859,8.859,0,0,0,3.111-2.277,3.464,3.464,0,0,0,.862-2.232,1.355,1.355,0,0,0-.439-.933,3.781,3.781,0,0,0-1.082-.715,13.7,13.7,0,0,0-3.569-.954q-.184-.023-.369-.031a3.68,3.68,0,0,1-2.4-.885A3.924,3.924,0,0,1,1.027-105.022Z" transform="translate(0 -157.38)" fill="#215296" fill-rule="evenodd"/>
    <path id="Path_507" data-name="Path 507" d="M288.783-129.419a.31.31,0,0,0,.1-.244.31.31,0,0,0-.125-.231,4.152,4.152,0,0,0-2.409-.764,4,4,0,0,0-4.059,3.926,4,4,0,0,0,4.059,3.926,4.1,4.1,0,0,0,3.333-1.687l2.732,1.462a7.125,7.125,0,0,1-6.113,3.464,7.129,7.129,0,0,1-7.126-7.126,7.129,7.129,0,0,1,7.126-7.126,7.13,7.13,0,0,1,6.432,4.057l-1.351.628.006.007-2.787,1.36a.1.1,0,0,1-.122-.032l-.513-.741a.1.1,0,0,1,.013-.126Z" transform="translate(-250.261 -132.063)" fill="#215296" fill-rule="evenodd"/>
    <path id="Path_508" data-name="Path 508" d="M290.827-129.7a.079.079,0,0,1-.028.023l-2.787,1.36a.176.176,0,0,1-.222-.058l-.513-.741a.176.176,0,0,1,.024-.229l.806-.753a.231.231,0,0,0,.073-.182.23.23,0,0,0-.092-.172,4.074,4.074,0,0,0-2.363-.749,3.917,3.917,0,0,0-3.98,3.847,3.917,3.917,0,0,0,3.98,3.847,4.018,4.018,0,0,0,3.269-1.654.079.079,0,0,1,.1-.023l2.732,1.462a.079.079,0,0,1,.039.049.079.079,0,0,1-.008.062,7.2,7.2,0,0,1-6.18,3.5,7.208,7.208,0,0,1-7.2-7.2,7.208,7.208,0,0,1,7.2-7.2,7.209,7.209,0,0,1,6.5,4.1.079.079,0,0,1,0,.061.079.079,0,0,1-.041.045Zm1.177-.721a7.051,7.051,0,0,0-6.326-3.941,7.05,7.05,0,0,0-7.047,7.047,7.05,7.05,0,0,0,7.047,7.047,7.045,7.045,0,0,0,6-3.355l-2.6-1.39a4.177,4.177,0,0,1-3.356,1.664,4.075,4.075,0,0,1-4.138-4,4.075,4.075,0,0,1,4.138-4,4.232,4.232,0,0,1,2.456.779.389.389,0,0,1,.157.29.389.389,0,0,1-.123.306l-.806.753a.018.018,0,0,0,0,.024l.513.741a.018.018,0,0,0,.023.006l2.752-1.343a.079.079,0,0,1,.03-.025Z" transform="translate(-249.64 -131.442)" fill="#215296" fill-rule="evenodd"/>
  </g>
</svg>
