<svg xmlns="http://www.w3.org/2000/svg" xmlns:xlink="http://www.w3.org/1999/xlink" viewBox="0 0 120.001 101.723">
  <defs>
    <clipPath id="clip-path">
      <rect id="Rectangle_160" data-name="Rectangle 160" width="71.607" height="95.647" transform="translate(0 0.099) rotate(-0.079)"/>
    </clipPath>
  </defs>
  <g id="OBJECTS" transform="translate(-39.099 -72)">
    <g id="Group_64999" data-name="Group 64999" transform="translate(39.1 72)">
      <path id="Path_125699" data-name="Path 125699" d="M118.935,165.519c-10.043-7.568-16.558-20.028-15.789-32.575.8-12.916,8.848-24.381,18.378-33.172,5.917-5.462,12.6-10.213,20.114-13.087s15.932-3.812,23.67-1.622c10.043,2.816,18.265,10.754,22.56,20.256s4.95,20.427,3.016,30.669c-1.622,8.535-5.036,16.842-10.64,23.471C164.739,177.724,137.911,179.8,118.935,165.519Z" transform="translate(-84.881 -80.483)" fill="#b0c1e3"/>
      <g id="Group_64972" data-name="Group 64972" transform="translate(24.885 5.441)">
        <g id="Group_64971" data-name="Group 64971" transform="translate(0 0)" clip-path="url(#clip-path)">
          <g id="Group_64969" data-name="Group 64969" transform="translate(1.886 4.326)">
            <path id="Path_125700" data-name="Path 125700" d="M398.638,667.21l12.432-.029a20.241,20.241,0,0,0-.91-2.959L397.5,662.8C397.984,666.527,398.638,667.21,398.638,667.21Z" transform="translate(-322.308 -504.488)" fill="#263238"/>
            <path id="Path_125701" data-name="Path 125701" d="M400.358,599.9c-.284.654-6.686,2.048-11.238-.455a9.623,9.623,0,0,1-1.422-.967c-.085-.683-.171-1.564-.313-2.674-.057-.626-.142-1.308-.228-2.048q-.085-.725-.171-1.536c-.171-1.479-.341-2.162-.569-4.012-.4-3.186-1.963-7.88-2.617-12.034l7.255-3.272c.114,7,.484,9.5,1.536,12.831a31.707,31.707,0,0,0,3.044,6.06c1.166,1.906,2.418,3.84,3.414,5.547h0l.256.427A17.267,17.267,0,0,1,400.358,599.9Z" transform="translate(-312.505 -440.164)" fill="#ebebeb"/>
            <path id="Path_125702" data-name="Path 125702" d="M408.8,645.784c-.171,1.337-6.657,3.016-11.209.541-.512-.284-1.024-1.565-1.451-1.935-.085-.683-.171-1.565-.313-2.674-.057-.626-.142-1.309-.228-2.048a6.32,6.32,0,0,0,1.622.683c.512-2.39,1.309-3.13,4.211-3.3a3.257,3.257,0,0,1,2.617.6c.882.74,1.764,2.333,3.414,5.547h0C407.862,643.964,408.317,644.817,408.8,645.784Z" transform="translate(-320.949 -486.05)" fill="#263238"/>
            <path id="Path_125703" data-name="Path 125703" d="M224.661,668.5l.37,2.816-26.23.057.541-2.276Z" transform="translate(-180.137 -508.567)" fill="#263238"/>
            <path id="Path_125704" data-name="Path 125704" d="M227.022,611.117s-7.909.6-15.107.8a63.614,63.614,0,0,1-9.815-.171,55.7,55.7,0,0,0,6.913-2.9c6-2.874,8.023-4.95,7.4-9.872-.484-3.812-1.565-9.531-1.565-9.531l8.791-1.138s.626,5.974,1.081,10.668A89.7,89.7,0,0,0,227.022,611.117Z" transform="translate(-182.498 -451.183)" fill="#ebebeb"/>
            <g id="Group_64951" data-name="Group 64951" transform="translate(29.348 62.153)">
              <g id="Group_64948" data-name="Group 64948">
                <path id="Path_125705" data-name="Path 125705" d="M243.228,324.8c-1.166,5.434-2.105,8.279-3.528,17.923l29.588-.028a90.48,90.48,0,0,0-1.423-16.3Z" transform="translate(-238.75 -324.8)" fill="#263238"/>
                <path id="Path_125706" data-name="Path 125706" d="M282.1,339.241c1.053,8.933,18.862,56.1,23.727,73.485,5.206,1.053,13.94-1.934,13.94-1.934-2.219-31.01-9.445-36.359-10.1-39.829-.654-3.442-5.633-29.018-11.408-42.162Z" transform="translate(-269.087 -327.662)" fill="#263238"/>
                <path id="Path_125707" data-name="Path 125707" d="M240.837,324.8c-5.491,10.5-4.58,38.094-4.125,52.176.455,14.054,2.475,33.229,2.475,33.229s6.629,2.39,12.575.427c.711-30.925,1.849-69.787,1.849-69.787Z" transform="translate(-236.359 -324.8)" fill="#263238"/>
              </g>
              <g id="Group_64950" data-name="Group 64950" transform="translate(0.627 2.383)">
                <g id="Group_64949" data-name="Group 64949">
                  <path id="Path_125708" data-name="Path 125708" d="M286.6,361.6Z" transform="translate(-272.934 -353.513)" fill="#38474f"/>
                  <path id="Path_125709" data-name="Path 125709" d="M239.626,340.551a8.61,8.61,0,0,0,3.926-5.633c.541-.028,1.081-.057,1.593-.057,1-.028,1.991-.028,3.016-.057.4,0,.8-.029,1.195-.029a32.353,32.353,0,0,0,.74,4.353.51.51,0,0,0,.142.2.7.7,0,0,0,.427.683,1.026,1.026,0,0,0,.91-.029,1.448,1.448,0,0,0,.6-1.536c-.142-1.252-.341-2.475-.569-3.727.853-.029,1.707-.057,2.56-.057.626-.028,1.223-.028,1.849-.057a.477.477,0,0,0-.085.341,14.908,14.908,0,0,0,.711,2.9c.228.91.484,1.821.711,2.7.484,1.849,1.024,3.67,1.622,5.491,1.195,3.67,2.191,7.368,3.243,11.067.057.256.455.142.4-.114-.91-3.727-1.849-7.454-2.617-11.238-.37-1.878-.8-3.727-1.28-5.576-.228-.91-.484-1.821-.711-2.7a16.611,16.611,0,0,0-.825-2.873c0-.029-.029-.029-.029-.057l5.007-.171a1.175,1.175,0,0,0,.057.541,10.085,10.085,0,0,0,2.56,3.414,10.589,10.589,0,0,0,3.755,2.077.514.514,0,0,0,.256-1,9.911,9.911,0,0,1-5.292-5.121c.939-.028,1.878-.085,2.816-.114a.484.484,0,0,0,0-.967c-4.068-.057-8.137-.028-12.2-.028-1.992,0-4.011.028-6,.028-1,0-1.991.029-3.016.029a29.561,29.561,0,0,0-3.186.085.776.776,0,0,0-.569.825.762.762,0,0,0,.74.654,3.089,3.089,0,0,0,.512.028,7.642,7.642,0,0,1-1.138,2.191,8.385,8.385,0,0,1-2.5,2.191C238.09,339.783,238.83,341.034,239.626,340.551Zm10.583-5.832a6.418,6.418,0,0,0,.74-.029c.028.939.085,1.849.142,2.76.028.256.028.512.057.768a1.909,1.909,0,0,1,0,.569.644.644,0,0,0-.028.114h0c-.057-.029-.085-.029-.142-.057a.537.537,0,0,0-.228-.057A40.927,40.927,0,0,0,250.21,334.719Z" transform="translate(-238.563 -333.175)" fill="#38474f"/>
                </g>
                <path id="Path_125710" data-name="Path 125710" d="M261.756,353.268c.029-1.565.142-3.158.256-4.723q.086-1.195.171-2.39a6.778,6.778,0,0,1,.37-2.39.526.526,0,0,1,.967.057,6.746,6.746,0,0,1,.029,2.39c-.057.8-.142,1.593-.2,2.39-.142,1.622-.256,3.243-.484,4.865-.228,1.565-.455,3.129-.654,4.723-.2,1.65-.455,3.272-.6,4.922,0,.057-.114.057-.114-.028C261.7,359.811,261.671,356.54,261.756,353.268Z" transform="translate(-254.975 -340.544)" fill="#38474f"/>
                <path id="Path_125711" data-name="Path 125711" d="M336.291,465.059c-.939-3.1-1.764-6.23-2.7-9.36-.028-.085.086-.114.114-.028,1,2.7,2.077,5.405,3.1,8.108s1.963,5.434,2.9,8.165q2.816,8.108,5.519,16.273c.967,2.9,1.963,5.775,2.873,8.706.114,0,.2-.028.313-.028,1.109-.114,2.19-.142,3.3-.2,1.138-.028,2.248.028,3.385,0,.313,0,.4.512.085.569-1.081.2-2.134.484-3.215.683-1.11.2-2.219.4-3.357.512-1.081.142-2.19.256-3.3.37a9.356,9.356,0,0,1-3.329.085.568.568,0,0,1-.142-1.024,9.178,9.178,0,0,1,3.158-.626c.626-.057,1.252-.142,1.878-.2-1.849-5.178-3.585-10.413-5.292-15.647C339.791,475.983,337.942,470.549,336.291,465.059Z" transform="translate(-306.551 -420.784)" fill="#38474f"/>
                <path id="Path_125712" data-name="Path 125712" d="M248.154,486.535a2.923,2.923,0,0,1,1.309.085,5.716,5.716,0,0,1,.683.114q-.128-9.346-.2-18.691c-.057-6.344-.171-12.717-.085-19.061.028-1.792.028-3.613.085-5.405.028-1.792.142-3.613.142-5.405,0-.228.341-.228.37,0,.057,3.215.313,6.43.427,9.616.114,3.129.171,6.287.228,9.417q.171,9.516.285,19.061c.057,3.556.085,7.112.114,10.669.6.085,1.223.142,1.821.2a32.211,32.211,0,0,0,5.235.171c.341-.028.427.541.085.6a34.2,34.2,0,0,1-5.405.626,21.222,21.222,0,0,1-2.7-.171,5.743,5.743,0,0,1-2.674-.683A.682.682,0,0,1,248.154,486.535Z" transform="translate(-245.071 -408.178)" fill="#38474f"/>
              </g>
            </g>
            <g id="Group_64952" data-name="Group 64952" transform="translate(29.13 23.151)">
              <path id="Path_125713" data-name="Path 125713" d="M263.3,187.934c-4.922-1.11-13.087,2.248-13.087,2.248s-10.1,2.7-13.428,4.865c-3.329,2.191,1.337,23.3,1.366,30.811l27.511.8C267.6,209.812,271.64,189.841,263.3,187.934Z" transform="translate(-235.592 -187.71)" fill="#ebebeb"/>
            </g>
            <path id="Path_125714" data-name="Path 125714" d="M272.5,244.1s-.028-14,.285-18.89c.4-6.316,1.053-13.257,1.053-13.257l5.917-.455c-1.707,6.031-2.731,32.888-2.731,32.888Z" transform="translate(-232.868 -181.581)" fill="#fcc74c"/>
            <path id="Path_125715" data-name="Path 125715" d="M238.326,282.33s-1.223,22.617-1.878,27.2-2.674,5.206-12.148.683c.654-4.666,1.422-9.445,2.219-13.969.085-.484.171-.939.256-1.422,2.219-12.233,4.5-22.219,4.5-22.219Z" transform="translate(-198.382 -225.298)" fill="#ebebeb"/>
            <path id="Path_125716" data-name="Path 125716" d="M283.3,261.826s4.353,28.023,7.255,33,20.028-2.93,20.028-2.93C307.6,278.1,298.264,248,298.264,248Z" transform="translate(-240.597 -207.696)" fill="#ebebeb"/>
            <g id="Group_64954" data-name="Group 64954" transform="translate(27.212 51.999)">
              <path id="Path_125717" data-name="Path 125717" d="M327.207,318.268c-.341.142-.683.284-1.053.427-.427-1.963-.967-3.9-1.479-5.832-.683-2.646-1.366-5.292-2.134-7.909-.74-2.617-1.479-5.263-2.191-7.88-.711-2.646-1.536-5.235-2.276-7.881-.028-.142-.256-.085-.2.057.626,2.674,1.167,5.348,1.821,7.994s1.28,5.32,1.878,7.966c.6,2.674,1.28,5.32,1.963,7.966.512,1.992.967,3.983,1.565,5.946a47.473,47.473,0,0,1-6.828,2.134c-2.731.6-5.747,1.28-8.478.341a.359.359,0,0,0-.4.512c.8,1.252,2.333,1.366,3.67,1.28a32.242,32.242,0,0,0,4.922-.8,36.65,36.65,0,0,0,7.4-2.532c.114.341.228.654.341,1a.442.442,0,0,0,.854-.228c-.057-.427-.142-.825-.228-1.252.4-.228.825-.455,1.223-.683S327.634,318.1,327.207,318.268Z" transform="translate(-286.454 -289.11)" fill="#dbdbdb"/>
              <g id="Group_64953" data-name="Group 64953" transform="translate(0 29.135)">
                <path id="Path_125718" data-name="Path 125718" d="M237.912,393.676a16.715,16.715,0,0,1-4.267-.541,12.541,12.541,0,0,1-1.992-.654c-.313-.142-.626-.284-.91-.427a4.716,4.716,0,0,0-1.081-.512.667.667,0,0,0-.626,1.109,5.824,5.824,0,0,0,2.134,1.081,12.376,12.376,0,0,0,2.219.654,12.551,12.551,0,0,0,4.609.057C238.453,394.387,238.339,393.676,237.912,393.676Z" transform="translate(-228.852 -391.52)" fill="#dbdbdb"/>
              </g>
            </g>
            <path id="Path_125719" data-name="Path 125719" d="M321.4,348.023c-.711-.341-1.622.2-2.276.427-.711.228-1.423.484-2.134.683-.711.228-1.422.4-2.134.6a22.68,22.68,0,0,1-2.3.569c-.4.057-.313.74.085.711.8-.057,1.565-.057,2.361-.114.8-.085,1.565-.228,2.361-.37q1.152-.256,2.3-.6c.74-.228,1.735-.427,2.02-1.195A.657.657,0,0,0,321.4,348.023Z" transform="translate(-261.338 -279.184)" fill="#dbdbdb"/>
            <path id="Path_125720" data-name="Path 125720" d="M275.392,171.3l5.8,1.707,1.906,3.186-11.551,3.272-1.252-3.812Z" transform="translate(-231.296 -152.817)" fill="#a6cce4"/>
            <g id="Group_64957" data-name="Group 64957" transform="translate(0 18.966)">
              <path id="Path_125721" data-name="Path 125721" d="M179.892,237.472c3.471-2.7,17.724-12.091,19.516-22.048,1.337-7.34-4.125-10.1-9.644-5.206S171.3,227.344,171.3,227.344Z" transform="translate(-160.461 -197.871)" fill="#ebebeb"/>
              <path id="Path_125722" data-name="Path 125722" d="M138.1,230.8l3.841,14.253a8.388,8.388,0,0,0,11.807,5.377l.967-.455L141.656,230.8Z" transform="translate(-136.706 -214.356)" fill="#ac635b"/>
              <g id="Group_64956" data-name="Group 64956">
                <path id="Path_125723" data-name="Path 125723" d="M147.661,198.175l2.048-4.21a.868.868,0,0,0-.341-1.11h0a.87.87,0,0,0-1,.142l-3.073,3.073Z" transform="translate(-141.858 -187.136)" fill="#824645"/>
                <path id="Path_125724" data-name="Path 125724" d="M140.175,211.8c1.366,5.491.91,8.99-3.642,9.246l-2.134-6.8Z" transform="translate(-134.059 -200.762)" fill="#ac635b"/>
                <path id="Path_125725" data-name="Path 125725" d="M158.53,182.142,153.836,182l-6.942,5.036a.688.688,0,0,0-.142.967.719.719,0,0,0,1,.142l6.316-5.263,4.5-.455a.134.134,0,0,0,.142-.142A.159.159,0,0,0,158.53,182.142Z" transform="translate(-142.797 -179.439)" fill="#263238"/>
                <g id="Group_64955" data-name="Group 64955" transform="translate(14.658)">
                  <path id="Path_125726" data-name="Path 125726" d="M185.171,177.239a4.106,4.106,0,0,1-.341-2.845c.2-.825,1.081-1.792,1.849-1.223.569.427.114,1.337.171,1.935.057.683.768,1.366.427,2.048A1.264,1.264,0,0,1,185.171,177.239Z" transform="translate(-184.721 -173)" fill="#a6cce4"/>
                  <path id="Path_125727" data-name="Path 125727" d="M186,178.976a2.962,2.962,0,0,1-.285-.512,2.022,2.022,0,0,1-.114-.569,2.167,2.167,0,0,1,.085-.6c.028-.057-.085-.114-.114-.057a2.36,2.36,0,0,0-.171.6v.654a1.923,1.923,0,0,0,.2.654,1.509,1.509,0,0,0,.171.285.381.381,0,0,0,.4.228c.085,0,.142-.085.171-.171C186.4,179.289,186.111,179.175,186,178.976Z" transform="translate(-185.207 -176.017)" fill="#90b9d1"/>
                  <path id="Path_125728" data-name="Path 125728" d="M189.884,185.971a.1.1,0,0,0-.028-.057h0v-.029a16.679,16.679,0,0,1-.057-.057h-.029c-.028,0-.028-.028-.057-.028h-.057a.256.256,0,0,0-.142.028l-.057.028a.216.216,0,0,0-.057.114v.142a.1.1,0,0,0,.029.085c0,.028.028.028.028.057.029.028.057.057.085.057s.028.028.057.028h.085l.057-.028c.028-.028.085-.057.085-.085a.028.028,0,0,1,.029-.028.1.1,0,0,0,.028-.085Z" transform="translate(-188.069 -182.158)" fill="#90b9d1"/>
                </g>
                <path id="Path_125729" data-name="Path 125729" d="M157.83,180.1h-4.723l-6.8,5.206a.709.709,0,1,0,.882,1.11l6.174-5.405,4.467-.569c.085,0,.114-.057.142-.142C157.973,180.185,157.916,180.1,157.83,180.1Z" transform="translate(-142.382 -178.08)" fill="#38474f"/>
                <path id="Path_125730" data-name="Path 125730" d="M139.886,188.778l-3.727.654a1.177,1.177,0,0,0-.8.569l-1.991,5.377a2.667,2.667,0,0,0,0,1.878l2.561,7.226c.2-.967,2.333-1.252,2.93-3.7.854-2.56-1.508-7.482-1.508-7.482l.114-2.105,2.816-1.138a.663.663,0,0,0,.4-.8A.71.71,0,0,0,139.886,188.778Z" transform="translate(-133.2 -184.283)" fill="#ac635b"/>
                <path id="Path_125731" data-name="Path 125731" d="M140.86,202.4c1.963-.028,2.845,1.053,2.3,2.077a1.657,1.657,0,0,1-.569,2.3,1.094,1.094,0,0,1,1.252,1.593,11.347,11.347,0,0,1-2.475,1.821l-3.073-5.263Z" transform="translate(-136.849 -194.035)" fill="#ac635b"/>
                <path id="Path_125732" data-name="Path 125732" d="M139.551,202.473a1.377,1.377,0,0,0-.683.085,2.87,2.87,0,0,0-.654.341,4.269,4.269,0,0,0-1.053.967c-.057.057.057.171.114.085a3.321,3.321,0,0,1,1.081-.825l.6-.256a4.192,4.192,0,0,0,.626-.285A.061.061,0,0,0,139.551,202.473Z" transform="translate(-136.023 -194.081)" fill="#824645"/>
                <path id="Path_125733" data-name="Path 125733" d="M145.181,208.257a.83.83,0,0,1-.256-.057H144.7a2.208,2.208,0,0,0-.455.057,3.315,3.315,0,0,0-.939.313,3.5,3.5,0,0,0-1.337,1.394c-.057.085.085.171.114.085a3.477,3.477,0,0,1,1.366-1.195,4.2,4.2,0,0,1,.825-.341l.427-.085c.085,0,.142-.028.228-.028s.171-.057.256-.028C145.238,208.4,145.267,208.228,145.181,208.257Z" transform="translate(-139.463 -198.186)" fill="#824645"/>
                <path id="Path_125734" data-name="Path 125734" d="M148.218,216.4c-.085,0-.171.028-.228.028a1.964,1.964,0,0,0-.228.085,1.194,1.194,0,0,0-.4.256,7.755,7.755,0,0,0-.711.654c-.057.057.028.171.114.114a4.734,4.734,0,0,1,.8-.512,3.392,3.392,0,0,0,.427-.256,1.647,1.647,0,0,0,.341-.284C148.3,216.457,148.247,216.4,148.218,216.4Z" transform="translate(-142.813 -204.053)" fill="#824645"/>
                <path id="Path_125735" data-name="Path 125735" d="M148.863,227.892a.88.88,0,0,0-.484.8c0,.4.228.8.228,1.195a1.74,1.74,0,0,1-.284.939,1.392,1.392,0,0,1-.341.37c-.142.114-.37.171-.427.341a.178.178,0,0,0,.142.256.651.651,0,0,0,.484-.228,4.943,4.943,0,0,0,.341-.4,2.291,2.291,0,0,0,.4-.939,2.607,2.607,0,0,0-.085-1.053c-.085-.313-.256-.882.114-1.11C149.062,228.034,148.977,227.864,148.863,227.892Z" transform="translate(-143.458 -212.273)" fill="#824645"/>
              </g>
            </g>
            <g id="Group_64958" data-name="Group 64958" transform="translate(38.179 22.836)">
              <path id="Path_125736" data-name="Path 125736" d="M268.2,186.6l-.8,1.735.8,5.832,4.495-4.1Z" transform="translate(-267.4 -186.6)" fill="#fcc74c"/>
            </g>
            <path id="Path_125737" data-name="Path 125737" d="M153.2,261.9c-4.267,3.215-10.868,2.247-19.2-13.2l6.913-6.8,11.977,16.074Z" transform="translate(-133.772 -203.332)" fill="#ebebeb"/>
            <g id="Group_64961" data-name="Group 64961" transform="translate(29.616)">
              <path id="Path_125738" data-name="Path 125738" d="M254.7,109.6c-2.93-2.674-5.747-4.694-9.161-1.963s-4.125,3.158-4.125,3.158-2.56,4.438.4,8.25Z" transform="translate(-239.507 -106.333)" fill="#263238"/>
              <path id="Path_125739" data-name="Path 125739" d="M278.2,116.08c7.653-3.414,12.66,5.263,7.112,13.286Z" transform="translate(-266.564 -112.76)" fill="#263238"/>
              <path id="Path_125740" data-name="Path 125740" d="M280.873,169.307c0,2.02-5.462,5.519-5.462,5.519s-2.134-2.731-2.5-4.808L271.2,161.4l8.933-3.7.74,11.351Z" transform="translate(-261.556 -143.086)" fill="#ac635b"/>
              <path id="Path_125741" data-name="Path 125741" d="M279.3,169.5c0,3.755-2.361,7.34-6.2,7.34l-1.138-5.6-.057-.711Z" transform="translate(-262.057 -151.529)" fill="#263238"/>
              <path id="Path_125742" data-name="Path 125742" d="M243.278,133.378a8.355,8.355,0,0,0,5.405,4.353c3.243.683,6.543-1.195,8.592-3.784a12.532,12.532,0,0,0,2.39-5.092c.882-3.983-.228-8.307-4.011-10.612a11.833,11.833,0,0,0-10.213-.341,5.875,5.875,0,0,0-2.817,2.617C240.717,124.246,241.372,129.822,243.278,133.378Z" transform="translate(-240.29 -113.9)" fill="#ac635b"/>
              <g id="Group_64959" data-name="Group 64959" transform="translate(16.544 10.737)">
                <path id="Path_125743" data-name="Path 125743" d="M298.481,144.508a3.054,3.054,0,0,1,3.186.028,2.973,2.973,0,0,1,1.053,2.361,4.954,4.954,0,0,1-.91,3.215,4.178,4.178,0,0,1-3.016,1.678,3.347,3.347,0,0,1-3.044-1.508C294.669,148.349,296.746,145.476,298.481,144.508Z" transform="translate(-295.452 -144.074)" fill="#ac635b"/>
              </g>
              <path id="Path_125744" data-name="Path 125744" d="M251.3,117.291c2.02,1.735,6.657,2.5,9.275,2.105a5.7,5.7,0,0,0,2.617,3.1,30.085,30.085,0,0,0,1.252,5.405A20.785,20.785,0,0,0,267,123.92C266.378,116.608,256.9,113.024,251.3,117.291Z" transform="translate(-247.317 -112.862)" fill="#263238"/>
              <path id="Path_125745" data-name="Path 125745" d="M305.667,153.516c-.825.626-1.167,1.764-.484,1.963.37.114.512-.37.683-.91.4-1.166,1.167-1.252,1.195-1.423C307.061,152.976,306.378,152.976,305.667,153.516Z" transform="translate(-285.609 -139.756)" fill="#263238"/>
              <g id="Group_64960" data-name="Group 64960" transform="translate(1.091 10.097)">
                <path id="Path_125746" data-name="Path 125746" d="M248.28,156.711a.839.839,0,0,0,.569,1c.37.057.683-.313.74-.825a.839.839,0,0,0-.569-1C248.65,155.829,248.337,156.2,248.28,156.711Z" transform="translate(-246.242 -151.882)" fill="#263238"/>
                <path id="Path_125747" data-name="Path 125747" d="M256.122,156.716c.284-1.252.6-2.475.967-3.7.028-.114.228-.085.2.028-.2,1.024-.427,2.02-.654,3.044a4.7,4.7,0,0,0-.256,1.536,1.226,1.226,0,0,0,.74.882c.085.057.085.2,0,.228a.879.879,0,0,1-.939-.484A2.2,2.2,0,0,1,256.122,156.716Z" transform="translate(-251.78 -149.782)" fill="#263238"/>
                <path id="Path_125748" data-name="Path 125748" d="M276.573,142.586c-.313-.939-2.93-1.024-3.442-.171C272.248,143.9,277.113,144.179,276.573,142.586Z" transform="translate(-263.951 -141.825)" fill="#263238"/>
                <path id="Path_125749" data-name="Path 125749" d="M244.2,142.967c-.341-.8-2.617-.74-2.987.057C240.528,144.361,244.739,144.333,244.2,142.967Z" transform="translate(-241.136 -142.235)" fill="#263238"/>
                <path id="Path_125750" data-name="Path 125750" d="M272.073,156.117a7.677,7.677,0,0,0-1.394-.341c-.2-.028-.4-.028-.6-.057a8.327,8.327,0,0,1,1.992-.882.173.173,0,0,0-.057-.341,5.633,5.633,0,0,0-2.959,1.252c0,.028-.029.028-.029.057a.1.1,0,0,0-.028.085v.057h0a.214.214,0,0,0,.028.142h.029l.085.085c.029,0,.029,0,.057.028h0a23.488,23.488,0,0,1,2.845.228C272.158,156.43,272.215,156.174,272.073,156.117Z" transform="translate(-261.073 -150.889)" fill="#263238"/>
                <path id="Path_125751" data-name="Path 125751" d="M271.678,172.626a3.679,3.679,0,0,1-.711.768,2.158,2.158,0,0,1-1.081.455c-.114,0-.114.171,0,.228a1.48,1.48,0,0,0,1.394-.228,1.335,1.335,0,0,0,.6-1.166C271.848,172.6,271.706,172.569,271.678,172.626Z" transform="translate(-261.645 -163.842)" fill="#263238"/>
              </g>
              <path id="Path_125752" data-name="Path 125752" d="M262.535,125.8a3.673,3.673,0,0,1,0,1.366,3.675,3.675,0,0,0,0,1.366,1.437,1.437,0,0,0,.967,1.053.98.98,0,0,1,.284-.74c.171-.2.4-.37.569-.569a2.182,2.182,0,0,0,.569-2.134Z" transform="translate(-255.309 -120.262)" fill="#263238"/>
              <path id="Path_125753" data-name="Path 125753" d="M242.705,118.748a1.553,1.553,0,0,0-1.792-.427,14.9,14.9,0,0,0-1.735.967,2.143,2.143,0,0,1-1.878.313,3.035,3.035,0,0,0,3.186,1.991c1.11-.2,2.048-1.11,3.186-1.138Z" transform="translate(-237.3 -114.831)" fill="#263238"/>
            </g>
            <path id="Path_125754" data-name="Path 125754" d="M295.612,183.9l-3.812,4.58,3.5,3.841,3.186-7.112Z" transform="translate(-246.679 -161.833)" fill="#fcc74c"/>
            <path id="Path_125755" data-name="Path 125755" d="M267.4,192.7l3.386,7.056,1.764,4.324,4.666-7.027-2.873-2.276.427,2.93-2.077,1.28-2.39-3.471Z" transform="translate(-229.221 -168.129)" fill="#fcc74c"/>
            <g id="Group_64962" data-name="Group 64962" transform="translate(43.471 33.02)">
              <path id="Path_125756" data-name="Path 125756" d="M288.685,222.855a.36.36,0,0,0-.029-.171.617.617,0,0,0-.085-.142l-.085-.085a.4.4,0,0,0-.171-.057H288.2a.4.4,0,0,0-.171.057l-.085.085a.288.288,0,0,0-.114.2c-.028.057-.028.114-.057.171,0,.028-.028.057-.028.085v.057a.393.393,0,0,0,0,.256h0v.028c.028.028.028.085.057.114a.343.343,0,0,0,.142.142.148.148,0,0,0,.114.057.412.412,0,0,0,.2.057h.114c.028-.028.085-.028.114-.057a.343.343,0,0,0,.142-.142.246.246,0,0,0,.085-.171C288.714,223.168,288.685,223,288.685,222.855Z" transform="translate(-287.234 -222.4)" fill="#90b9d1"/>
              <path id="Path_125757" data-name="Path 125757" d="M286.939,248.554a.361.361,0,0,0-.028-.171l-.085-.171a.5.5,0,0,0-.142-.114.188.188,0,0,0-.171-.028H286.4a.853.853,0,0,0-.228.114l-.085.085a.535.535,0,0,0-.057.228c0,.114-.028.256-.028.37a.557.557,0,0,0,.028.2.6.6,0,0,0,.114.171.363.363,0,0,0,.171.114.405.405,0,0,0,.171.057h.114a.573.573,0,0,0,.228-.114.393.393,0,0,0,.085-.114.382.382,0,0,0,.057-.256A1.747,1.747,0,0,1,286.939,248.554Z" transform="translate(-286 -240.759)" fill="#90b9d1"/>
            </g>
            <path id="Path_125758" data-name="Path 125758" d="M281.351,219.785c-.825,7.425-1.309,14.936-1.422,22.418-.028,2.105-.057,4.21.028,6.344a.427.427,0,0,0,.853,0c.029-7.482,0-14.964.37-22.447.114-2.105.228-4.211.37-6.316C281.55,219.672,281.351,219.672,281.351,219.785Z" transform="translate(-238.164 -187.448)" fill="#90b9d1"/>
            <g id="Group_64968" data-name="Group 64968" transform="translate(20.415 14.084)">
              <path id="Path_125759" data-name="Path 125759" d="M243.876,226.4c4.836,8.108,17.1,24.381,17.1,24.381l-.228.028c-7.738,1.337-13.343-3.613-15.733-11.1L238.3,228.42Z" transform="translate(-228.814 -206.326)" fill="#ac635b"/>
              <g id="Group_64966" data-name="Group 64966">
                <path id="Path_125760" data-name="Path 125760" d="M232.4,204.611s-.825-1.195-1.479-2.134a1.93,1.93,0,0,0-2.219-.74l-3.1,1.053,1.223,2.247,2.134-.37Z" transform="translate(-219.727 -188.605)" fill="#ac635b"/>
                <path id="Path_125761" data-name="Path 125761" d="M218,206.49l-5.747.028a.644.644,0,0,1-.654-.654v-1.081a.644.644,0,0,1,.654-.654L218,204.1a.644.644,0,0,1,.654.654v1.081A.644.644,0,0,1,218,206.49Z" transform="translate(-209.71 -190.37)" fill="#ac635b"/>
                <rect id="Rectangle_159" data-name="Rectangle 159" width="1.451" height="10.469" transform="translate(5.033 11.359) rotate(-14.94)" fill="#263238"/>
                <path id="Path_125762" data-name="Path 125762" d="M220.414,204.249a34.688,34.688,0,0,1,3.869,6.2l-1.337,3.186-7.8-4.3-3.642-2.7a1.393,1.393,0,0,1-.4-1.849h0a1.375,1.375,0,0,1,1.792-.541l2.39,1.11Z" transform="translate(-209.221 -190.377)" fill="#ac635b"/>
                <path id="Path_125763" data-name="Path 125763" d="M213.577,213.3a1.243,1.243,0,0,0-.683,1.166,1.184,1.184,0,0,1,.654,2.162,1.356,1.356,0,0,0,.825.939.979.979,0,0,0,.228,1.252,2.962,2.962,0,0,0,1.366.6,48.473,48.473,0,0,0,8.336.768Z" transform="translate(-210.635 -196.953)" fill="#ac635b"/>
                <g id="Group_64964" data-name="Group 64964">
                  <path id="Path_125764" data-name="Path 125764" d="M214.8,161.779c.8,2.9.171,5.661-1.337,6.543-1.764,0-3.67-2.048-4.438-4.979-.8-2.9-.171-5.661,1.337-6.543C212.127,156.8,214.033,158.877,214.8,161.779Z" transform="translate(-207.62 -156.526)" fill="#a6cce4"/>
                  <g id="Group_64963" data-name="Group 64963" transform="translate(4.011 1.916)">
                    <path id="Path_125765" data-name="Path 125765" d="M219.637,162.752a.591.591,0,0,0-.285-.171.27.27,0,0,0-.284.114c-.029.057,0,.142,0,.2a13.555,13.555,0,0,0,.882,2.76c.142.285.341.74.683.825a.542.542,0,0,0,.6-.484,3.3,3.3,0,0,0-.74-2.191A4.208,4.208,0,0,0,219.637,162.752Z" transform="translate(-219.056 -162.574)" fill="#fff"/>
                    <path id="Path_125766" data-name="Path 125766" d="M224.282,178.729a.815.815,0,0,0,.171.626.673.673,0,0,0,.8.2.476.476,0,0,0,.256-.313.7.7,0,0,0-.085-.74A.627.627,0,0,0,224.282,178.729Z" transform="translate(-222.79 -173.772)" fill="#fff"/>
                  </g>
                  <path id="Path_125767" data-name="Path 125767" d="M208.213,155.913l-1.053.284c-1.906.512-2.731,3.528-1.849,6.743s3.1,5.405,5.007,4.893l1.053-.285c1.906-.512,2.731-3.528,1.849-6.743S210.091,155.4,208.213,155.913Zm2.589,11.721c-1.764,0-3.67-2.048-4.438-4.979-.8-2.9-.171-5.661,1.337-6.543,1.764,0,3.67,2.048,4.438,4.979C212.936,163.993,212.338,166.752,210.8,167.634Z" transform="translate(-204.958 -155.839)" fill="#263238"/>
                </g>
                <path id="Path_125768" data-name="Path 125768" d="M223.418,206a1.726,1.726,0,0,0-.512.142c-.2.057-.4.142-.569.2a8.9,8.9,0,0,1-1.252.284,12.383,12.383,0,0,1-2.5.2c-.057,0-.057.057-.028.085a6.066,6.066,0,0,0,3.841-.028c.228-.085.427-.171.654-.256a1.25,1.25,0,0,0,.512-.341A.212.212,0,0,0,223.418,206Z" transform="translate(-214.672 -191.73)" fill="#263238"/>
                <g id="Group_64965" data-name="Group 64965" transform="translate(3.241 16.827)">
                  <path id="Path_125769" data-name="Path 125769" d="M219.609,215.417a3.474,3.474,0,0,0-.768-.028,8.031,8.031,0,0,1-.825-.057,7.263,7.263,0,0,1-.768-.142,8.15,8.15,0,0,1-.8-.2c-.085-.028-.142.114-.057.142.256.142.484.256.74.37a3.921,3.921,0,0,0,.825.228c.285.028.569.057.825.085a2,2,0,0,0,.825-.114C219.751,215.617,219.722,215.446,219.609,215.417Z" transform="translate(-216.352 -214.987)" fill="#824645"/>
                  <path id="Path_125770" data-name="Path 125770" d="M220.6,221.948a1.386,1.386,0,0,0-.313-.114c-.085,0-.2-.028-.284-.028a5.259,5.259,0,0,1-.654-.114c-.114-.028-.142.142-.028.171.2.057.427.142.626.2a1.209,1.209,0,0,0,.313.057.7.7,0,0,0,.341-.028C220.626,222.033,220.655,221.948,220.6,221.948Z" transform="translate(-218.422 -219.782)" fill="#824645"/>
                  <path id="Path_125771" data-name="Path 125771" d="M219.8,228.214c-.057-.028-.085-.057-.142-.057a.423.423,0,0,0-.2-.028,1.383,1.383,0,0,1-.341-.029.127.127,0,0,0-.114.085c0,.057.028.114.085.114a1.474,1.474,0,0,0,.313.057.466.466,0,0,0,.2,0c.057,0,.085-.029.142-.029C219.825,228.328,219.854,228.242,219.8,228.214Z" transform="translate(-218.247 -224.369)" fill="#824645"/>
                </g>
              </g>
              <g id="Group_64967" data-name="Group 64967" transform="translate(9.514 10.597)">
                <path id="Path_125772" data-name="Path 125772" d="M296.32,226.917c8.649-8.023,10.043-26.6,7.909-31.551-1.565-3.613-5.377-3.272-7.937,3.5-2.589,6.771-3.7,11.693-8.592,21.223Z" transform="translate(-273.675 -193.087)" fill="#ebebeb"/>
                <path id="Path_125773" data-name="Path 125773" d="M261.046,256.405c-9.161,9.73-16.472-1.167-22.646-15.277l6.942-6.828L255.9,246.59Z" transform="translate(-238.4 -222.575)" fill="#ebebeb"/>
                <path id="Path_125774" data-name="Path 125774" d="M246.6,260.7c-.512.825.768,2.731,1.593,2.5C249.507,262.809,247.4,259.338,246.6,260.7Z" transform="translate(-244.187 -241.241)" fill="#dbdbdb"/>
              </g>
              <path id="Path_125775" data-name="Path 125775" d="M269.168,220.548c-.142,2.589-.427,5.178-.8,7.738a42.072,42.072,0,0,1-1.764,7.482,24.351,24.351,0,0,1-7.084,10.782,16.548,16.548,0,0,1-2.873,1.963c-.512.285-1.024.512-1.536.74-.541.228-1.735.711-1.735.711a19.646,19.646,0,0,1-3.67-1.935,20.47,20.47,0,0,1-3.329-2.93,36.965,36.965,0,0,1-5.405-8.108c-.882-1.679-1.735-3.414-2.532-5.149,0-.028-.028-.028-.057-.028.028-.029.057-.029.085-.057,2.333-2.361,4.666-4.694,6.771-7.255a.122.122,0,0,0-.171-.171,95.885,95.885,0,0,0-7.2,6.828.449.449,0,0,0,.427.74v.057a65.436,65.436,0,0,0,4.3,9.559,23.809,23.809,0,0,0,6.287,7.084c.8.569,3.556,2.418,4.723,2.3a12.128,12.128,0,0,0,3.186-1.195A16.645,16.645,0,0,0,259.5,248a22.406,22.406,0,0,0,4.523-4.751,30.79,30.79,0,0,0,4.922-13.713,84.571,84.571,0,0,0,.6-8.9C269.509,220.348,269.2,220.348,269.168,220.548Z" transform="translate(-228.416 -202.038)" fill="#dbdbdb"/>
              <path id="Path_125776" data-name="Path 125776" d="M274.852,221.613c.455-1.195.882-2.418,1.28-3.642.8-2.39,1.479-4.836,2.077-7.283.341-1.394.626-2.816.939-4.239.029-.142-.2-.2-.228-.057-1.309,4.893-2.959,9.7-4.751,14.452-.256.654-.484,1.309-.74,1.935-.228.569-.512,1.138-.683,1.707-1.394-1.65-2.76-3.329-4.182-4.95-.74-.854-1.479-1.735-2.219-2.589-.768-.882-1.565-1.707-2.333-2.589-.142-.142-.4.085-.285.228.711.91,1.366,1.821,2.105,2.731.711.882,1.451,1.792,2.162,2.674l4.353,5.292a.421.421,0,0,0,.256.37h0l1.195,2.39a17.108,17.108,0,0,1,1.138,2.56c.057.142.256.057.2-.057-.228-.939-.4-1.878-.683-2.816a8.986,8.986,0,0,0-.455-1.223,14.846,14.846,0,0,1,1.992,1.536,13.318,13.318,0,0,1,2.7,3.215c.085.142.313,0,.228-.142a15.551,15.551,0,0,0-2.447-3.613,12.539,12.539,0,0,0-3.044-2.418,11.456,11.456,0,0,0,.74-1.707A18.831,18.831,0,0,0,274.852,221.613Z" transform="translate(-246.988 -191.952)" fill="#dbdbdb"/>
            </g>
            <path id="Path_125777" data-name="Path 125777" d="M184.839,278.1a13.389,13.389,0,0,0-.768-2.02,17.528,17.528,0,0,0-.967-1.934c-.341-.6-.74-1.195-1.138-1.764a15.667,15.667,0,0,0-1.422-1.622c-.171-.171-.4.085-.256.256a18.483,18.483,0,0,1,1.166,1.735c.37.569.711,1.167,1.024,1.764s.6,1.195.853,1.821c.256.655.427,1.337.683,1.992C184.185,278.81,184.982,278.639,184.839,278.1Z" transform="translate(-166.859 -223.94)" fill="#dbdbdb"/>
            <path id="Path_125778" data-name="Path 125778" d="M179.649,277.948c-.114-.4-.2-.8-.341-1.195-.057-.2-.142-.37-.2-.569a1.023,1.023,0,0,0-.37-.6.336.336,0,0,0-.484.2.827.827,0,0,0,.142.626l.256.6c.142.37.313.74.455,1.138a18.087,18.087,0,0,1,.711,2.418c.028.2.313.114.284-.085A18.882,18.882,0,0,0,179.649,277.948Z" transform="translate(-165.424 -227.402)" fill="#dbdbdb"/>
            <path id="Path_125779" data-name="Path 125779" d="M140.771,242.452c-1.11.882-2.077,1.906-3.158,2.873-.512.455-1.024.939-1.508,1.451a17.178,17.178,0,0,0-1.991,2.077c-.285.455.313,1.081.768.768a17.233,17.233,0,0,0,2.134-1.935c.484-.512.967-1.053,1.422-1.622.91-1.11,1.906-2.105,2.76-3.272C141.426,242.509,141,242.281,140.771,242.452Z" transform="translate(-133.801 -203.685)" fill="#dbdbdb"/>
            <path id="Path_125780" data-name="Path 125780" d="M142.2,267.6c-.512.825.768,2.731,1.593,2.5C145.107,269.709,143,266.238,142.2,267.6Z" transform="translate(-139.559 -221.497)" fill="#dbdbdb"/>
            <path id="Path_125781" data-name="Path 125781" d="M226.092,650.183l-1.565-7.283c-2.077.142-2.589,3.072-4.95,3.215-2.333.142-4.154-3.215-5.633-3.215-2.134,3.556-12.091,4.893-13.144,7.852C204.271,652.658,224.072,652.061,226.092,650.183Z" transform="translate(-181.568 -490.25)" fill="#263238"/>
          </g>
          <path id="Path_125782" data-name="Path 125782" d="M238.231,352.933c-.74-.028-1.508-.028-2.247-.114-.711-.085-1.451-.228-2.162-.37q-.811-.171-1.622-.427c.085-.484.171-.939.256-1.423.569.228,1.138.4,1.707.6.683.228,1.394.4,2.105.569.683.171,1.337.341,2.048.455C238.715,352.307,238.6,352.933,238.231,352.933Z" transform="translate(-202.149 -276.781)" fill="#dbdbdb"/>
          <g id="Group_64970" data-name="Group 64970" transform="translate(31.523 15.984)">
            <path id="Path_125783" data-name="Path 125783" d="M242.416,154.5c.313,1.792-.541,3.442-1.906,3.67-1.366.256-2.731-1-3.073-2.788-.313-1.792.541-3.442,1.906-3.67C240.738,151.46,242.1,152.712,242.416,154.5Z" transform="translate(-237.373 -150.439)" fill="none" stroke="#ebebeb" stroke-miterlimit="10" stroke-width="1"/>
            <ellipse id="Ellipse_2724" data-name="Ellipse 2724" cx="2.532" cy="3.3" rx="2.532" ry="3.3" transform="translate(7.318 0.888) rotate(-10.096)" fill="none" stroke="#ebebeb" stroke-miterlimit="10" stroke-width="1"/>
            <path id="Path_125784" data-name="Path 125784" d="M254.3,158.283a4.964,4.964,0,0,1,3.016.171" transform="translate(-249.484 -155.042)" fill="none" stroke="#ebebeb" stroke-miterlimit="10" stroke-width="1"/>
            <line id="Line_28" data-name="Line 28" y1="1.622" x2="3.67" transform="translate(12.867 1.648)" fill="none" stroke="#ebebeb" stroke-miterlimit="10" stroke-width="1"/>
          </g>
        </g>
      </g>
      <g id="Group_64976" data-name="Group 64976" transform="translate(89.673 62.852)">
        <path id="Path_125785" data-name="Path 125785" d="M384.76,409.1v5.178H377.9v-1.707a1.028,1.028,0,0,0-1.11-.882h-6.828a1.01,1.01,0,0,0-1.109.882v1.707H362V409.1Z" transform="translate(-359.809 -376.049)" fill="#38474f"/>
        <path id="Path_125786" data-name="Path 125786" d="M362.52,412.514a12.554,12.554,0,0,1,2.077-.085c.711,0,1.451,0,2.162-.028h15.135a7.09,7.09,0,0,1,2.333.256.16.16,0,0,1,0,.313,6.917,6.917,0,0,1-2.02.256c-.711,0-1.451,0-2.162.028h-4.268c-2.816,0-5.661.028-8.506.028h-3.556a5.891,5.891,0,0,1-1.223-.057C362.179,413.111,362.15,412.571,362.52,412.514Z" transform="translate(-359.989 -378.41)" fill="#263238"/>
        <path id="Path_125787" data-name="Path 125787" d="M378.548,345.021v-2.3a6.03,6.03,0,0,0-.142-1.252l-1.394-6.458a2.071,2.071,0,0,0-2.02-1.622H372.46V330h5.918a2.516,2.516,0,0,1,2.333,1.536l3.955,9.388a6.468,6.468,0,0,1,.484,2.447v7.994h-6.657l-15.391.028v-1.451a1.081,1.081,0,0,1,1.081-1.081l10.526-.028A3.837,3.837,0,0,0,378.548,345.021Z" transform="translate(-360.597 -319.452)" fill="#dbdbdb"/>
        <path id="Path_125788" data-name="Path 125788" d="M355.495,403.828l24.78-.028a1.2,1.2,0,0,1,1.195,1.195v.171a1.2,1.2,0,0,1-1.195,1.195l-24.78.028a1.2,1.2,0,0,1-1.195-1.195v-.171A1.184,1.184,0,0,1,355.495,403.828Z" transform="translate(-354.3 -372.256)" fill="#38474f"/>
        <g id="Group_64975" data-name="Group 64975" transform="translate(5.349 0)">
          <rect id="Rectangle_161" data-name="Rectangle 161" width="2.589" height="4.438" transform="translate(6.552 4.438) rotate(179.921)" fill="#a6cce4"/>
          <rect id="Rectangle_162" data-name="Rectangle 162" width="3.727" height="20.853" transform="matrix(-1, 0.001, -0.001, -1, 7.131, 22.372)" fill="#263238"/>
          <rect id="Rectangle_163" data-name="Rectangle 163" width="6.885" height="16.643" transform="translate(8.723 21.085) rotate(179.921)" fill="#ebebeb"/>
          <g id="Group_64973" data-name="Group 64973" transform="translate(2.516 5.91)">
            <rect id="Rectangle_164" data-name="Rectangle 164" width="1.422" height="1.735" transform="translate(1.449 12.547) rotate(179.921)" fill="#fff"/>
            <rect id="Rectangle_165" data-name="Rectangle 165" width="1.422" height="9.986" transform="translate(1.436 9.986) rotate(179.921)" fill="#fff"/>
          </g>
          <rect id="Rectangle_166" data-name="Rectangle 166" width="1.991" height="3.414" transform="matrix(-1, 0.001, -0.001, -1, 6.281, 29.362)" fill="#263238"/>
          <g id="Group_64974" data-name="Group 64974" transform="translate(5.718 7.162)">
            <path id="Path_125789" data-name="Path 125789" d="M393.2,321.059a2.959,2.959,0,1,0,2.959-2.959A2.956,2.956,0,0,0,393.2,321.059Z" transform="translate(-393.2 -318.1)" fill="#a6cce4"/>
            <path id="Path_125790" data-name="Path 125790" d="M397.2,323.921a1.821,1.821,0,1,0,1.821-1.821A1.834,1.834,0,0,0,397.2,323.921Z" transform="translate(-396.062 -320.962)" fill="none" stroke="#263238" stroke-miterlimit="10" stroke-width="1"/>
          </g>
          <path id="Path_125791" data-name="Path 125791" d="M373.811,384.336h9.1a.7.7,0,0,0,.711-.711v-.114a.7.7,0,0,0-.711-.711h-9.1a.7.7,0,0,0-.711.711v.114A.7.7,0,0,0,373.811,384.336Z" transform="translate(-373.1 -357.231)" fill="#38474f"/>
        </g>
      </g>
      <g id="Group_64980" data-name="Group 64980" transform="translate(16.965 17.544)">
        <g id="Group_64978" data-name="Group 64978" transform="translate(69.454 3.26)">
          <path id="Path_125792" data-name="Path 125792" d="M355.133,164.115c-1.991-1.11-4.267-1.195-6.458-1.622-2.3-.427-5.121-1.593-5.348-4.3a.229.229,0,0,0-.455.028c-.171,2.162,1.593,4.011,3.442,4.836,2.162.939,4.58,1,6.8,1.735a6.223,6.223,0,0,1,2.589,1.565,4.376,4.376,0,0,1,1.053,3.044c-.028,2.447-1.366,4.609-2.02,6.913-.654,2.361-.6,5.434,1.764,6.828.512.313.967-.427.6-.825-1.536-1.622-1.451-3.983-.825-5.974.711-2.247,1.849-4.324,1.963-6.743A5.844,5.844,0,0,0,355.133,164.115Z" transform="translate(-342.86 -154.336)" fill="#263238"/>
          <path id="Path_125793" data-name="Path 125793" d="M351.046,148.4a3.162,3.162,0,0,0-.967.4c-.285.142-.569.285-.882.427-.626.313-1.252.626-1.906.939q-1.877.939-3.755,1.963c-.285.171-.114.626.2.484,1.309-.6,2.617-1.195,3.9-1.821.626-.313,1.252-.626,1.906-.939l.939-.455a2.507,2.507,0,0,0,.825-.512A.3.3,0,0,0,351.046,148.4Z" transform="translate(-343.239 -147.464)" fill="#dbdbdb"/>
          <path id="Path_125794" data-name="Path 125794" d="M353.288,155.4a1.65,1.65,0,0,0-.853.313c-.256.142-.541.285-.8.427l-1.792.939c-1.195.6-2.39,1.166-3.528,1.792-.285.171-.142.626.2.512a35.534,35.534,0,0,0,3.7-1.622c.569-.284,1.166-.569,1.735-.882.313-.171.626-.313.91-.484a1.329,1.329,0,0,0,.654-.512A.32.32,0,0,0,353.288,155.4Z" transform="translate(-345.225 -152.477)" fill="#dbdbdb"/>
          <path id="Path_125795" data-name="Path 125795" d="M359.627,164.882a.4.4,0,0,0-.4-.057c-1.337.711-2.674,1.394-4.011,2.105-.285.171-.142.626.2.484.711-.256,1.394-.54,2.077-.853s1.337-.654,2.02-1a.476.476,0,0,0,.256-.313C359.769,165.11,359.769,164.968,359.627,164.882Z" transform="translate(-351.593 -159.2)" fill="#dbdbdb"/>
          <path id="Path_125796" data-name="Path 125796" d="M364.066,177.586a5.582,5.582,0,0,0-1.394.768c-.427.256-.882.54-1.309.8-.91.569-1.764,1.166-2.646,1.792-.284.2.029.626.313.427.854-.6,1.736-1.138,2.646-1.679.427-.256.882-.512,1.337-.768a5.528,5.528,0,0,0,1.366-.8A.34.34,0,0,0,364.066,177.586Z" transform="translate(-354.126 -168.348)" fill="#dbdbdb"/>
          <path id="Path_125797" data-name="Path 125797" d="M366.282,182.674a3.525,3.525,0,0,0-.967.512c-.37.228-.711.427-1.081.626-.683.4-1.366.825-2.048,1.252-1.394.853-2.76,1.764-4.1,2.7a.3.3,0,0,0,.341.484q2.006-1.323,4.1-2.56c.654-.4,1.337-.8,1.991-1.195.37-.2.711-.427,1.081-.626a4.406,4.406,0,0,0,1-.6A.355.355,0,0,0,366.282,182.674Z" transform="translate(-353.667 -171.984)" fill="#dbdbdb"/>
          <path id="Path_125798" data-name="Path 125798" d="M371.61,188.789a14.073,14.073,0,0,0-2.048,1.337c-.683.484-1.394.939-2.077,1.422l-4.1,2.9c-.313.228.028.654.341.455,1.394-.882,2.788-1.764,4.182-2.617.683-.427,1.366-.853,2.048-1.309a14.7,14.7,0,0,0,2.077-1.394C372.378,189.273,372.122,188.561,371.61,188.789Z" transform="translate(-357.459 -176.336)" fill="#dbdbdb"/>
          <path id="Path_125799" data-name="Path 125799" d="M379.31,201.685a.427.427,0,0,0-.512,0,8.768,8.768,0,0,0-1.166.854c-.4.284-.8.569-1.195.825-.8.541-1.622,1.053-2.447,1.536-.284.171-.028.683.284.512.882-.455,1.764-.939,2.617-1.451.427-.256.825-.512,1.223-.8a10.051,10.051,0,0,0,1.252-.91.382.382,0,0,0,.057-.427A.5.5,0,0,0,379.31,201.685Z" transform="translate(-365.046 -185.533)" fill="#dbdbdb"/>
          <path id="Path_125800" data-name="Path 125800" d="M390.193,215.347a1.926,1.926,0,0,0-.654.4c-.171.142-.37.256-.54.4L387.8,217c-.8.569-1.593,1.138-2.39,1.736-.4.284.057.882.455.6.8-.569,1.622-1.11,2.418-1.678l1.195-.854c.171-.142.37-.256.54-.4a2.475,2.475,0,0,0,.6-.484A.37.37,0,0,0,390.193,215.347Z" transform="translate(-373.197 -195.354)" fill="#dbdbdb"/>
          <path id="Path_125801" data-name="Path 125801" d="M394.722,218.566a3.568,3.568,0,0,0-1,.6c-.37.228-.711.455-1.053.683-.683.455-1.365.882-2.048,1.337-1.366.91-2.788,1.792-4.1,2.816a.336.336,0,1,0,.4.541c1.451-.825,2.817-1.764,4.182-2.7.683-.455,1.337-.91,2.02-1.366.342-.228.683-.484,1.053-.711a5.818,5.818,0,0,0,.939-.711C395.292,218.822,395.007,218.481,394.722,218.566Z" transform="translate(-374 -197.663)" fill="#dbdbdb"/>
          <g id="Group_64977" data-name="Group 64977" transform="translate(3.708)">
            <path id="Path_125802" data-name="Path 125802" d="M370.69,164.294c-2.731-.541-5.491.285-8.222.029-2.134-.2-4.694-1.195-5.092-3.585-.427-2.532,1.223-4.865,2.3-7a10.3,10.3,0,0,0,1.223-4.182,8.265,8.265,0,0,0-1.053-4.267c-.171-.313-.711-.142-.541.228a7.927,7.927,0,0,1,.569,3.983,10.167,10.167,0,0,1-1.28,3.613c-1.223,2.248-2.76,4.41-2.7,7.112a5.629,5.629,0,0,0,4.3,5.121c2.617.8,5.292.285,7.966.2a8.7,8.7,0,0,1,3.983.711,5.507,5.507,0,0,1,2.56,2.646.567.567,0,0,0,1.081-.284C375.669,166.143,372.824,164.692,370.69,164.294Z" transform="translate(-355.895 -145.126)" fill="#fcc74c"/>
          </g>
        </g>
        <g id="Group_64979" data-name="Group 64979">
          <path id="Path_125803" data-name="Path 125803" d="M113.8,158.7a4.583,4.583,0,0,0-1.081,1.252c-.341.455-.683.91-1,1.394-.626.939-1.28,1.878-1.906,2.788a.143.143,0,1,0,.228.171c.683-.882,1.394-1.764,2.105-2.646.341-.427.683-.882,1.024-1.309a5.282,5.282,0,0,0,.91-1.422C114.146,158.727,113.976,158.584,113.8,158.7Z" transform="translate(-106.644 -151.549)" fill="#fcc74c"/>
          <path id="Path_125804" data-name="Path 125804" d="M128.338,159.691a5.2,5.2,0,0,0-1.622-.114c-.569,0-1.138,0-1.707.028-1.138.057-2.248.085-3.386.114a.142.142,0,1,0,0,.285c1.138.028,2.248.085,3.386.114.569.028,1.11.028,1.678.028a5.509,5.509,0,0,0,1.678-.114C128.509,160,128.509,159.776,128.338,159.691Z" transform="translate(-115.004 -152.2)" fill="#38474f"/>
          <path id="Path_125805" data-name="Path 125805" d="M101.225,142.921a1.705,1.705,0,1,0,.427,2.7c.057.028.085.057.142.085.484.256.967.484,1.451.74.967.484,1.906.967,2.873,1.451a.191.191,0,0,0,.171-.341l-2.817-1.536c-.455-.256-.939-.512-1.394-.768-.028-.028-.085-.028-.114-.057A1.743,1.743,0,0,0,101.225,142.921Z" transform="translate(-98.73 -140.152)" fill="#38474f"/>
          <path id="Path_125806" data-name="Path 125806" d="M120.838,138.123a.272.272,0,0,0-.541.057,26.67,26.67,0,0,0,.341,2.987c.142,1,.313,1.991.455,2.959a.216.216,0,0,0,.427-.057c-.114-1-.171-1.991-.285-2.987C121.122,140.115,121.037,139.09,120.838,138.123Z" transform="translate(-114.16 -136.692)" fill="#fcc74c"/>
          <path id="Path_125807" data-name="Path 125807" d="M120.011,154.193a1.794,1.794,0,1,1-2.418.768A1.792,1.792,0,0,1,120.011,154.193Z" transform="translate(-112.083 -148.21)" fill="#fcc74c"/>
          <path id="Path_125808" data-name="Path 125808" d="M117.642,133.849a1.521,1.521,0,1,1-2.048.654A1.5,1.5,0,0,1,117.642,133.849Z" transform="translate(-110.68 -133.669)" fill="#fcc74c"/>
          <circle id="Ellipse_2725" data-name="Ellipse 2725" cx="1.764" cy="1.764" r="1.764" transform="translate(1.755 10.877)" fill="#fcc74c"/>
          <path id="Path_125809" data-name="Path 125809" d="M140.74,156.919a1.349,1.349,0,1,1-1.821.569A1.358,1.358,0,0,1,140.74,156.919Z" transform="translate(-127.378 -150.197)" fill="#38474f"/>
        </g>
      </g>
      <g id="Group_64984" data-name="Group 64984" transform="translate(5.608 2.552)">
        <g id="Group_64982" data-name="Group 64982" transform="translate(0 41.042)">
          <path id="Path_125810" data-name="Path 125810" d="M72.082,234.165a11.19,11.19,0,0,1,3.357-1.65c1.195-.512,2.617-1.479,2.418-2.987-.028-.171.2-.2.256-.057a2.96,2.96,0,0,1-1.309,3.044c-1.081.768-2.39,1.081-3.5,1.764a3.435,3.435,0,0,0-1.223,1.166,2.317,2.317,0,0,0-.2,1.792c.313,1.337,1.309,2.361,1.935,3.528.654,1.195.967,2.9-.142,3.954-.256.228-.569-.114-.427-.37a3.368,3.368,0,0,0-.256-3.385,15.01,15.01,0,0,1-1.878-3.442A3.141,3.141,0,0,1,72.082,234.165Z" transform="translate(-67.506 -228.2)" fill="#ebebeb"/>
          <path id="Path_125811" data-name="Path 125811" d="M79.427,227.386A1.274,1.274,0,0,1,80,227.5c.171.057.341.085.541.142.37.085.768.2,1.138.285.768.2,1.536.4,2.276.626.171.057.142.341-.057.284-.8-.171-1.565-.341-2.361-.541-.37-.085-.768-.2-1.138-.285l-.569-.142a1.553,1.553,0,0,1-.512-.171A.211.211,0,0,1,79.427,227.386Z" transform="translate(-73.456 -226.769)" fill="#ebebeb"/>
          <path id="Path_125812" data-name="Path 125812" d="M79.828,231.241a.822.822,0,0,1,.512.057c.171.057.313.085.484.142.37.114.74.2,1.081.284.711.2,1.451.341,2.162.569a.16.16,0,0,1-.057.313,20.48,20.48,0,0,1-2.219-.455c-.341-.085-.711-.171-1.053-.285-.2-.057-.37-.114-.569-.171a.99.99,0,0,1-.427-.2C79.686,231.44,79.742,231.269,79.828,231.241Z" transform="translate(-73.772 -229.514)" fill="#ebebeb"/>
          <path id="Path_125813" data-name="Path 125813" d="M81.245,236.366c.057-.057.114-.114.2-.085.825.228,1.622.455,2.447.683a.145.145,0,0,1-.057.284c-.427-.057-.825-.142-1.252-.228-.4-.085-.825-.2-1.223-.313-.057-.028-.142-.057-.171-.142A.2.2,0,0,1,81.245,236.366Z" transform="translate(-74.82 -233.132)" fill="#ebebeb"/>
          <path id="Path_125814" data-name="Path 125814" d="M78.765,244.2a2.96,2.96,0,0,1,.853.256c.285.085.541.2.8.284.569.2,1.11.427,1.65.654a.154.154,0,0,1-.114.284,16.254,16.254,0,0,0-1.65-.6c-.285-.085-.541-.171-.825-.256a3.973,3.973,0,0,1-.825-.256A.224.224,0,0,1,78.765,244.2Z" transform="translate(-72.965 -238.804)" fill="#ebebeb"/>
          <path id="Path_125815" data-name="Path 125815" d="M74.133,248.1a1.325,1.325,0,0,1,.569.171c.228.085.455.142.654.228l1.28.427c.853.313,1.707.626,2.56,1,.2.085.057.37-.142.313-.854-.313-1.679-.626-2.532-.91-.4-.142-.825-.285-1.223-.4-.228-.085-.455-.142-.654-.2a2.3,2.3,0,0,1-.626-.2C73.877,248.384,73.962,248.1,74.133,248.1Z" transform="translate(-69.642 -241.594)" fill="#ebebeb"/>
          <path id="Path_125816" data-name="Path 125816" d="M71.747,252.186a6.963,6.963,0,0,1,1.28.484c.427.171.882.341,1.309.541.853.37,1.735.74,2.589,1.11.2.085.057.37-.142.285-.882-.313-1.735-.626-2.617-.939-.427-.142-.853-.313-1.28-.484a10.4,10.4,0,0,1-1.309-.512A.26.26,0,0,1,71.747,252.186Z" transform="translate(-67.853 -244.514)" fill="#ebebeb"/>
          <path id="Path_125817" data-name="Path 125817" d="M73.7,259.214a.262.262,0,0,1,.285-.057,5.867,5.867,0,0,1,.74.341c.256.114.512.228.74.313.512.2,1.024.37,1.536.541.171.057.085.37-.085.313-.541-.142-1.081-.313-1.593-.484-.256-.085-.512-.171-.768-.284a5,5,0,0,1-.8-.37c-.057-.029-.085-.142-.085-.228C73.642,259.271,73.67,259.243,73.7,259.214Z" transform="translate(-69.435 -249.493)" fill="#ebebeb"/>
          <path id="Path_125818" data-name="Path 125818" d="M69.485,267.894a.954.954,0,0,1,.4.142,1.753,1.753,0,0,0,.341.142l.768.341c.512.228,1,.427,1.508.654a.217.217,0,0,1-.171.4c-.512-.2-1.024-.427-1.536-.626-.256-.114-.512-.228-.768-.313-.114-.057-.228-.085-.341-.142a1.051,1.051,0,0,1-.4-.2C69.173,268.122,69.286,267.866,69.485,267.894Z" transform="translate(-66.274 -255.755)" fill="#ebebeb"/>
          <path id="Path_125819" data-name="Path 125819" d="M62.794,271.2a4.013,4.013,0,0,1,.626.2c.228.085.455.171.654.256.427.171.854.313,1.28.484.854.341,1.735.654,2.589,1.053a.185.185,0,1,1-.142.341c-.882-.285-1.735-.626-2.617-.967l-1.28-.512c-.228-.085-.427-.171-.654-.256a2.305,2.305,0,0,1-.6-.285C62.51,271.4,62.652,271.2,62.794,271.2Z" transform="translate(-61.518 -258.122)" fill="#ebebeb"/>
          <g id="Group_64981" data-name="Group 64981">
            <path id="Path_125820" data-name="Path 125820" d="M61.114,237.086c1.422-.626,3.044-.484,4.5-.967,1.138-.37,2.418-1.223,2.361-2.56-.057-1.451-1.252-2.5-2.105-3.556A5.507,5.507,0,0,1,64.7,227.84a4.869,4.869,0,0,1,.057-2.475c.057-.2.37-.171.313.057a4.316,4.316,0,0,0,.171,2.248,5.308,5.308,0,0,0,1.138,1.821c.939,1.081,2.048,2.105,2.333,3.556a3.17,3.17,0,0,1-1.735,3.329,13.962,13.962,0,0,1-4.324,1.053,5.073,5.073,0,0,0-2.105.853,2.978,2.978,0,0,0-1.081,1.735.317.317,0,0,1-.626-.028C58.61,238.708,60,237.57,61.114,237.086Z" transform="translate(-58.813 -225.232)" fill="#ebebeb"/>
          </g>
        </g>
        <g id="Group_64983" data-name="Group 64983" transform="translate(75.555)">
          <path id="Path_125821" data-name="Path 125821" d="M345.163,93.417a4.257,4.257,0,0,0,1.309-.939l1.28-1.11c.825-.74,1.65-1.479,2.5-2.219.142-.114-.029-.341-.2-.228-.882.683-1.764,1.366-2.646,2.02l-1.28,1.024a5.061,5.061,0,0,0-1.195,1.138C344.85,93.3,344.993,93.474,345.163,93.417Z" transform="translate(-339.072 -86.637)" fill="#dbdbdb"/>
          <path id="Path_125822" data-name="Path 125822" d="M334.892,83.963a4.544,4.544,0,0,0,.8,1.394c.313.455.626.939.967,1.394.654.91,1.309,1.792,1.963,2.7a.155.155,0,0,0,.256-.171c-.6-.939-1.166-1.878-1.764-2.845-.285-.455-.6-.939-.882-1.394a4.644,4.644,0,0,0-1.024-1.309A.215.215,0,0,0,334.892,83.963Z" transform="translate(-331.902 -82.93)" fill="#dbdbdb"/>
          <path id="Path_125823" data-name="Path 125823" d="M348.242,108.485a1.673,1.673,0,1,0,.228-2.674l-.114-.114c-.4-.37-.8-.711-1.223-1.053-.825-.683-1.593-1.366-2.418-2.048-.171-.142-.427.114-.256.285.768.711,1.565,1.422,2.333,2.134.37.37.768.711,1.166,1.053l.085.085A1.692,1.692,0,0,0,348.242,108.485Z" transform="translate(-338.708 -96.413)" fill="#dbdbdb"/>
          <path id="Path_125824" data-name="Path 125824" d="M328.35,107.594a.273.273,0,0,0,.341.427c.825-.541,1.593-1.195,2.361-1.792.768-.626,1.508-1.252,2.276-1.878a.214.214,0,0,0-.256-.341c-.8.6-1.593,1.166-2.39,1.764S329.09,106.94,328.35,107.594Z" transform="translate(-327.152 -97.429)" fill="#dbdbdb"/>
          <path id="Path_125825" data-name="Path 125825" d="M340.7,100.3a1.773,1.773,0,1,1,2.5-.142A1.816,1.816,0,0,1,340.7,100.3Z" transform="translate(-335.632 -92.585)" fill="#dbdbdb"/>
          <path id="Path_125826" data-name="Path 125826" d="M324.391,114.156a1.482,1.482,0,1,1,1.565,1.394A1.473,1.473,0,0,1,324.391,114.156Z" transform="translate(-324.388 -103.592)" fill="#dbdbdb"/>
          <path id="Path_125827" data-name="Path 125827" d="M357.024,86.2a1.753,1.753,0,1,1,2.475-.142A1.754,1.754,0,0,1,357.024,86.2Z" transform="translate(-347.32 -82.521)" fill="#dbdbdb"/>
          <path id="Path_125828" data-name="Path 125828" d="M332.678,82.429a1.316,1.316,0,1,1,1.451,1.166A1.33,1.33,0,0,1,332.678,82.429Z" transform="translate(-330.313 -80.969)" fill="#dbdbdb"/>
        </g>
      </g>
      <g id="Group_64987" data-name="Group 64987" transform="translate(37.889 61.735)">
        <g id="Group_64986" data-name="Group 64986">
          <g id="Group_64985" data-name="Group 64985">
            <path id="Path_125829" data-name="Path 125829" d="M189.59,310.451A33.2,33.2,0,0,0,190.358,289c-.711,7.425-1.735,14.794-3.158,22.105Z" transform="translate(-182.956 -289)" fill="#3fac18" opacity="0.67"/>
            <path id="Path_125830" data-name="Path 125830" d="M179.225,314.811a23.828,23.828,0,0,1,1.422-17.411c-1.992,5.832,2.56,12.347.853,18.265Z" transform="translate(-176.517 -295.01)" fill="#3fac18" opacity="0.67"/>
            <path id="Path_125831" data-name="Path 125831" d="M204.09,309.8c-3.471,3.9-5.519,2.589-6.771,9.047-.256,1.309-1.536,6.145.142,5.974s2.3-5.178,3.158-7.653C201.729,313.812,203.123,312.218,204.09,309.8Z" transform="translate(-189.689 -303.883)" fill="#3fac18" opacity="0.67"/>
            <path id="Path_125832" data-name="Path 125832" d="M187.2,320.152a6.212,6.212,0,0,0,2.219-4.381,21.444,21.444,0,0,0-.341-5.036,14.98,14.98,0,0,1-.142-5.036c.341,2.731,2.105,4.78,2.873,7.4a9.281,9.281,0,0,1-1.309,7.767Z" transform="translate(-182.956 -300.949)" fill="#3fac18"/>
            <path id="Path_125833" data-name="Path 125833" d="M174.9,321.959A22.058,22.058,0,0,1,173,305.8c1.593,4.552,3.955,15.846,3.955,15.846Z" transform="translate(-172.281 -301.02)" fill="#3fac18"/>
          </g>
          <path id="Path_125834" data-name="Path 125834" d="M183.226,352.383l-.654,4.267-.54,3.528a.611.611,0,0,1-.6.512H175.2a.635.635,0,0,1-.6-.512l-1.024-7.8a.592.592,0,0,1,.6-.683h8.449A.6.6,0,0,1,183.226,352.383Z" transform="translate(-173.207 -333.862)" fill="#dbdbdb"/>
          <path id="Path_125835" data-name="Path 125835" d="M196.767,352.383l-.654,4.267a10.174,10.174,0,0,1-3.613-4.95h3.67A.6.6,0,0,1,196.767,352.383Z" transform="translate(-186.748 -333.862)" fill="#ebebeb"/>
        </g>
      </g>
      <g id="Group_64992" data-name="Group 64992" transform="translate(5.633 87.511)">
        <path id="Path_125836" data-name="Path 125836" d="M58.9,391.129l.028,10.469,21.991-.028L80.891,391.1Zm15.42,8.563-13.2.029v-6.657l13.2-.029Z" transform="translate(-58.9 -387.828)" fill="#dbdbdb"/>
        <rect id="Rectangle_167" data-name="Rectangle 167" width="3.158" height="6.657" transform="translate(2.186 5.209) rotate(-0.079)" fill="#dbdbdb"/>
        <path id="Path_125837" data-name="Path 125837" d="M76.159,379.6h-2.3a.654.654,0,1,0,0,1.309h.085V390.98a1.053,1.053,0,0,0,2.105,0V380.909h.085a.644.644,0,0,0,.654-.654A.6.6,0,0,0,76.159,379.6Z" transform="translate(-69.132 -379.6)" fill="#fff"/>
        <path id="Path_125838" data-name="Path 125838" d="M91.459,379.6h-2.3a.654.654,0,0,0,0,1.309h.085V390.98a1.053,1.053,0,0,0,2.105,0V380.909h.085a.644.644,0,0,0,.654-.654A.6.6,0,0,0,91.459,379.6Z" transform="translate(-80.079 -379.6)" fill="#fff"/>
        <path id="Path_125839" data-name="Path 125839" d="M106.759,379.6h-2.3a.654.654,0,1,0,0,1.309h.085V390.98a1.053,1.053,0,0,0,2.105,0V380.909h.085a.644.644,0,0,0,.654-.654A.6.6,0,0,0,106.759,379.6Z" transform="translate(-91.026 -379.6)" fill="#fff"/>
        <g id="Group_64991" data-name="Group 64991" transform="translate(4.068)">
          <g id="Group_64988" data-name="Group 64988">
            <path id="Path_125840" data-name="Path 125840" d="M78.105,387.8v9.047a1.053,1.053,0,1,1-2.105,0V387.8Z" transform="translate(-75.203 -385.467)" fill="#a6cce4"/>
            <path id="Path_125841" data-name="Path 125841" d="M76.159,379.6h-2.3a.654.654,0,1,0,0,1.309h.085V390.98a1.053,1.053,0,0,0,2.105,0V380.909h.085a.644.644,0,0,0,.654-.654A.6.6,0,0,0,76.159,379.6Z" transform="translate(-73.2 -379.6)" fill="none" stroke="#ebebeb" stroke-linecap="round" stroke-linejoin="round" stroke-miterlimit="10" stroke-width="1"/>
          </g>
          <g id="Group_64989" data-name="Group 64989" transform="translate(4.353)">
            <path id="Path_125842" data-name="Path 125842" d="M93.405,406.2v3.812a1.053,1.053,0,1,1-2.105,0V406.2Z" transform="translate(-90.503 -398.632)" fill="#263238"/>
            <path id="Path_125843" data-name="Path 125843" d="M91.459,379.6h-2.3a.654.654,0,0,0,0,1.309h.085V390.98a1.053,1.053,0,0,0,2.105,0V380.909h.085a.644.644,0,0,0,.654-.654A.6.6,0,0,0,91.459,379.6Z" transform="translate(-88.5 -379.6)" fill="none" stroke="#ebebeb" stroke-linecap="round" stroke-linejoin="round" stroke-miterlimit="10" stroke-width="1"/>
          </g>
          <g id="Group_64990" data-name="Group 64990" transform="translate(8.706)">
            <path id="Path_125844" data-name="Path 125844" d="M108.705,395.5v6.856a1.053,1.053,0,1,1-2.105,0V395.5Z" transform="translate(-105.803 -390.977)" fill="#38474f"/>
            <path id="Path_125845" data-name="Path 125845" d="M106.759,379.6h-2.3a.654.654,0,1,0,0,1.309h.085V390.98a1.053,1.053,0,0,0,2.105,0V380.909h.085a.644.644,0,0,0,.654-.654A.6.6,0,0,0,106.759,379.6Z" transform="translate(-103.8 -379.6)" fill="none" stroke="#ebebeb" stroke-linecap="round" stroke-linejoin="round" stroke-miterlimit="10" stroke-width="1"/>
          </g>
        </g>
        <path id="Path_125846" data-name="Path 125846" d="M58.9,391.129l.028,10.469,17.639-.028L76.539,391.1Zm15.42,8.563-13.2.029v-6.657l13.2-.029Z" transform="translate(-58.9 -387.828)" fill="#ebebeb"/>
      </g>
      <g id="Group_64995" data-name="Group 64995" transform="translate(24.609 88.421)">
        <g id="Group_64993" data-name="Group 64993" transform="translate(2.219)">
          <path id="Path_125847" data-name="Path 125847" d="M156.544,388.6l-23.044.029v-5.8l23.044-.028a2.343,2.343,0,0,1,2.333,2.333v1.138A2.325,2.325,0,0,1,156.544,388.6Z" transform="translate(-133.472 -382.8)" fill="#38474f"/>
          <path id="Path_125848" data-name="Path 125848" d="M143.144,388.7H133.5v-5.8h9.644a2.343,2.343,0,0,1,2.333,2.333v1.138A2.325,2.325,0,0,1,143.144,388.7Z" transform="translate(-133.472 -382.872)" fill="#263238"/>
          <path id="Path_125849" data-name="Path 125849" d="M142.76,389.983H133.4V386h9.36a1.591,1.591,0,0,1,1.593,1.593v.768A1.6,1.6,0,0,1,142.76,389.983Z" transform="translate(-133.4 -385.09)" fill="#ebebeb"/>
          <path id="Path_125850" data-name="Path 125850" d="M143.686,389.324a5.155,5.155,0,0,0-1.138-.114c-.427,0-.825-.029-1.252-.057-.853-.085-1.707-.085-2.56-.085-.825,0-1.65-.028-2.5,0a7.884,7.884,0,0,0-2.447.256.139.139,0,0,0,0,.256,7.428,7.428,0,0,0,2.39.227c.853.029,1.707,0,2.56,0a24.859,24.859,0,0,0,2.5-.085c.427-.057.825-.057,1.252-.085a4.61,4.61,0,0,0,.626-.028,4.022,4.022,0,0,0,.569-.114A.107.107,0,0,0,143.686,389.324Z" transform="translate(-133.615 -387.276)" fill="#dbdbdb"/>
          <path id="Path_125851" data-name="Path 125851" d="M144.3,394.725a2.582,2.582,0,0,0-1.138-.171h-6.543a11.794,11.794,0,0,0-2.646.114.277.277,0,0,0,0,.512,12.853,12.853,0,0,0,2.561.085h6.543a2.453,2.453,0,0,0,1.195-.171A.228.228,0,0,0,144.3,394.725Z" transform="translate(-133.686 -391.198)" fill="#dbdbdb"/>
          <path id="Path_125852" data-name="Path 125852" d="M199.236,385.7a3.244,3.244,0,0,1-.711,2.048,2.331,2.331,0,0,1-1.735.853H194.2a2.239,2.239,0,0,0,1.735-.853,3.3,3.3,0,0,0,.711-2.048,2.719,2.719,0,0,0-2.447-2.9h2.589A2.7,2.7,0,0,1,199.236,385.7Z" transform="translate(-176.903 -382.8)" fill="#263238"/>
          <path id="Path_125853" data-name="Path 125853" d="M185.036,385.7a3.244,3.244,0,0,1-.711,2.048,2.331,2.331,0,0,1-1.735.853H180a2.239,2.239,0,0,0,1.735-.853,3.3,3.3,0,0,0,.711-2.048A2.719,2.719,0,0,0,180,382.8h2.589A2.7,2.7,0,0,1,185.036,385.7Z" transform="translate(-166.742 -382.8)" fill="#263238"/>
        </g>
        <g id="Group_64994" data-name="Group 64994" transform="translate(0 5.804)">
          <path id="Path_125854" data-name="Path 125854" d="M151.618,410.17,125.7,410.2v-6.97l25.917-.029a2.836,2.836,0,0,1,2.817,2.788v1.366A2.841,2.841,0,0,1,151.618,410.17Z" transform="translate(-125.672 -403.2)" fill="#263238"/>
          <path id="Path_125855" data-name="Path 125855" d="M138.218,410.17,125.7,410.2v-6.97l12.518-.029a2.836,2.836,0,0,1,2.816,2.788v1.366A2.841,2.841,0,0,1,138.218,410.17Z" transform="translate(-125.672 -403.2)" fill="#38474f"/>
          <path id="Path_125856" data-name="Path 125856" d="M137.976,411.951l-12.376.028v-4.751l12.376-.028a1.906,1.906,0,0,1,1.906,1.906v.939A1.906,1.906,0,0,1,137.976,411.951Z" transform="translate(-125.6 -406.062)" fill="#ebebeb"/>
          <path id="Path_125857" data-name="Path 125857" d="M139.114,411.01a5.2,5.2,0,0,0-1.138-.142c-.427-.028-.825-.028-1.252-.085-.853-.114-1.707-.085-2.56-.114-.825,0-5.007-.029-5.832,0a6.5,6.5,0,0,0-2.447.284.186.186,0,0,0,0,.313,6.73,6.73,0,0,0,2.39.285c.854.028,5.036,0,5.889,0a18.652,18.652,0,0,0,2.5-.114c.427-.057.825-.057,1.252-.085a4.62,4.62,0,0,0,.626-.028,2.09,2.09,0,0,0,.569-.142C139.2,411.18,139.2,411.01,139.114,411.01Z" transform="translate(-125.743 -408.534)" fill="#dbdbdb"/>
          <path id="Path_125858" data-name="Path 125858" d="M139.826,417.6a1.985,1.985,0,0,0-1.138-.2h-3.954c-.854,0-5.036,0-5.917.029a11.786,11.786,0,0,0-2.646.114c-.228.057-.228.569,0,.6a11.046,11.046,0,0,0,2.56.114h8.563c.455,0,.882,0,1.309-.029a2.176,2.176,0,0,0,1.195-.2C139.94,417.938,139.94,417.653,139.826,417.6Z" transform="translate(-125.886 -413.358)" fill="#dbdbdb"/>
          <path id="Path_125859" data-name="Path 125859" d="M209.135,409.146a2.186,2.186,0,0,1-1.735,1.024h1.223a2.186,2.186,0,0,0,1.735-1.024,4.461,4.461,0,0,0,.711-2.475c0-1.935-1.11-3.471-2.447-3.471H207.4c1.366,0,2.447,1.565,2.447,3.471A4.243,4.243,0,0,1,209.135,409.146Z" transform="translate(-184.128 -403.2)" fill="#38474f"/>
          <path id="Path_125860" data-name="Path 125860" d="M178.435,409.246a2.187,2.187,0,0,1-1.735,1.024h1.223a2.187,2.187,0,0,0,1.735-1.024,4.462,4.462,0,0,0,.711-2.475c0-1.935-1.11-3.471-2.447-3.471H176.7c1.366,0,2.447,1.565,2.447,3.471A4.533,4.533,0,0,1,178.435,409.246Z" transform="translate(-162.162 -403.272)" fill="#38474f"/>
        </g>
      </g>
      <g id="Group_64997" data-name="Group 64997" transform="translate(33.268 1.177)">
        <path id="Path_125861" data-name="Path 125861" d="M172.385,78.915a9.6,9.6,0,1,0-1.906,15.107l4.865,1.337-1.394-4.865A9.556,9.556,0,0,0,172.385,78.915Z" transform="translate(-156.037 -76.137)" fill="#fff" stroke="#dbdbdb" stroke-miterlimit="10" stroke-width="1"/>
        <g id="Group_64996" data-name="Group 64996" transform="translate(2.436 3.062)">
          <path id="Path_125862" data-name="Path 125862" d="M171.456,87.27a4.461,4.461,0,0,0-1.337-.37,1.268,1.268,0,0,1-1.081,1.11,1.248,1.248,0,0,1-1.337-.825,5.171,5.171,0,0,0-1.223.683A1.263,1.263,0,0,1,164.97,89.8a4.462,4.462,0,0,0-.37,1.337,1.268,1.268,0,0,1,1.11,1.081,1.248,1.248,0,0,1-.825,1.337,5.17,5.17,0,0,0,.683,1.223,1.263,1.263,0,0,1,1.935,1.508,4.46,4.46,0,0,0,1.337.37,1.268,1.268,0,0,1,1.081-1.11,1.248,1.248,0,0,1,1.337.825,5.171,5.171,0,0,0,1.223-.683,1.263,1.263,0,0,1,1.508-1.935,4.463,4.463,0,0,0,.37-1.337,1.268,1.268,0,0,1-1.11-1.081A1.248,1.248,0,0,1,174.074,90a5.167,5.167,0,0,0-.683-1.223,1.263,1.263,0,0,1-1.934-1.508Zm-.711,5.491a1.622,1.622,0,1,1-.284-2.276A1.6,1.6,0,0,1,170.745,92.761Z" transform="translate(-164.6 -86.9)" fill="#38474f"/>
          <path id="Path_125863" data-name="Path 125863" d="M197.482,113.351a3.463,3.463,0,0,0-.028-.939.878.878,0,0,1-.939-.484.832.832,0,0,1,.256-1.024,3.721,3.721,0,0,0-.683-.654.847.847,0,0,1-1.536-.6,3.463,3.463,0,0,0-.939.028.878.878,0,0,1-.484.939.832.832,0,0,1-1.024-.256,3.721,3.721,0,0,0-.654.683.847.847,0,0,1-.6,1.536,3.465,3.465,0,0,0,.028.939.878.878,0,0,1,.939.484.832.832,0,0,1-.256,1.024,3.721,3.721,0,0,0,.683.654.847.847,0,0,1,1.536.6,3.462,3.462,0,0,0,.939-.028.878.878,0,0,1,.484-.939.832.832,0,0,1,1.024.256,3.72,3.72,0,0,0,.654-.683.851.851,0,0,1-.313-1A.864.864,0,0,1,197.482,113.351Zm-3.7.626a1.1,1.1,0,1,1,1.422-.626A1.091,1.091,0,0,1,193.783,113.977Z" transform="translate(-183.371 -103.167)" fill="#fcc74c"/>
        </g>
      </g>
      <line id="Line_29" data-name="Line 29" y1="0.171" x2="120" transform="translate(0 101.053)" fill="none" stroke="#263238" stroke-miterlimit="10" stroke-width="1"/>
      <g id="Group_64998" data-name="Group 64998" transform="translate(9.289 0)">
        <path id="Path_125864" data-name="Path 125864" d="M72.561,181.3a.855.855,0,0,0,0,1.707A.855.855,0,0,0,72.561,181.3Z" transform="translate(-71.75 -150.205)" fill="#f4f4f4"/>
        <path id="Path_125865" data-name="Path 125865" d="M250.361,72a.855.855,0,0,0,0,1.707A.855.855,0,0,0,250.361,72Z" transform="translate(-198.967 -72)" fill="#f4f4f4"/>
        <path id="Path_125866" data-name="Path 125866" d="M412.961,146.4a.855.855,0,0,0,0,1.707A.855.855,0,0,0,412.961,146.4Z" transform="translate(-315.308 -125.234)" fill="#f4f4f4"/>
        <path id="Path_125867" data-name="Path 125867" d="M419.061,295.8a.855.855,0,0,0,0,1.707A.855.855,0,0,0,419.061,295.8Z" transform="translate(-319.672 -232.13)" fill="#f4f4f4"/>
        <path id="Path_125868" data-name="Path 125868" d="M97.661,339.9a.855.855,0,0,0,0,1.707A.855.855,0,0,0,97.661,339.9Z" transform="translate(-89.709 -263.684)" fill="#f4f4f4"/>
        <path id="Path_125869" data-name="Path 125869" d="M305.861,103a.855.855,0,0,0,0,1.707A.855.855,0,0,0,305.861,103Z" transform="translate(-238.677 -94.181)" fill="#fff"/>
        <path id="Path_125870" data-name="Path 125870" d="M183.961,224.8a.855.855,0,0,0,0,1.707A.855.855,0,0,0,183.961,224.8Z" transform="translate(-151.457 -181.329)" fill="#fff"/>
        <path id="Path_125871" data-name="Path 125871" d="M183.361,151.3a.855.855,0,0,0,0,1.707A.855.855,0,0,0,183.361,151.3Z" transform="translate(-151.028 -128.74)" fill="#fff"/>
        <path id="Path_125872" data-name="Path 125872" d="M138.561,324.9a.855.855,0,0,0,0,1.707A.855.855,0,0,0,138.561,324.9Z" transform="translate(-118.973 -252.951)" fill="#fff"/>
        <path id="Path_125873" data-name="Path 125873" d="M122.561,240.2a.855.855,0,0,0,0,1.707A.855.855,0,0,0,122.561,240.2Z" transform="translate(-107.525 -192.348)" fill="#fff"/>
        <path id="Path_125874" data-name="Path 125874" d="M224.361,333.8a.855.855,0,0,0,0,1.707A.855.855,0,0,0,224.361,333.8Z" transform="translate(-180.364 -259.319)" fill="#fff"/>
        <path id="Path_125875" data-name="Path 125875" d="M365.861,271.3a.855.855,0,0,0,0,1.707A.855.855,0,0,0,365.861,271.3Z" transform="translate(-281.607 -214.6)" fill="#fff"/>
        <path id="Path_125876" data-name="Path 125876" d="M326.061,170.3a.855.855,0,0,0,0,1.707A.855.855,0,0,0,326.061,170.3Z" transform="translate(-253.131 -142.334)" fill="#fff"/>
        <path id="Path_125877" data-name="Path 125877" d="M384.161,161.1a.855.855,0,0,0,0,1.707A.855.855,0,0,0,384.161,161.1Z" transform="translate(-294.701 -135.752)" fill="#fff"/>
        <path id="Path_125878" data-name="Path 125878" d="M365.861,319.1a.855.855,0,0,0,0,1.707A.855.855,0,0,0,365.861,319.1Z" transform="translate(-281.607 -248.801)" fill="#fff"/>
      </g>
    </g>
  </g>
</svg>
