<svg xmlns="http://www.w3.org/2000/svg" width="24" height="24" viewBox="0 0 24 24"><g transform="translate(-236 -384)"><g transform="translate(236 384)"><path d="M13,20.75H7c-2.77,0-4.647-.586-5.905-1.845S-.75,15.77-.75,13V7c0-2.77.586-4.647,1.845-5.905S4.23-.75,7-.75h6c2.77,0,4.647.586,5.905,1.845S20.75,4.23,20.75,7v6c0,2.77-.586,4.647-1.845,5.905S15.77,20.75,13,20.75ZM7,.75C4.654.75,3.114,1.2,2.155,2.155S.75,4.654.75,7v6c0,2.346.447,3.886,1.405,4.845S4.654,19.25,7,19.25h6c2.346,0,3.886-.447,4.845-1.405S19.25,15.346,19.25,13V7c0-2.346-.447-3.886-1.405-4.845S15.346.75,13,.75Z" transform="translate(2 2)" fill="#7b7e81"/><path d="M18.96.75H0A.75.75,0,0,1-.75,0,.75.75,0,0,1,0-.75H18.96a.75.75,0,0,1,.75.75A.75.75,0,0,1,18.96.75Z" transform="translate(2.52 7.11)" fill="#7b7e81"/><path d="M0,5.61a.75.75,0,0,1-.75-.75V0A.75.75,0,0,1,0-.75.75.75,0,0,1,.75,0V4.86A.75.75,0,0,1,0,5.61Z" transform="translate(8.52 2.11)" fill="#7b7e81"/><path d="M0,5.16a.75.75,0,0,1-.75-.75V0A.75.75,0,0,1,0-.75.75.75,0,0,1,.75,0V4.41A.75.75,0,0,1,0,5.16Z" transform="translate(15.48 2.11)" fill="#7b7e81"/><path d="M1.345,6.607A2.176,2.176,0,0,1-.75,4.129v-2.4A2.176,2.176,0,0,1,1.345-.75,2.9,2.9,0,0,1,2.8-.32L4.875.879a2.441,2.441,0,0,1,1.373,2.05A2.44,2.44,0,0,1,4.876,4.978l-2.081,1.2A2.9,2.9,0,0,1,1.345,6.607Zm0-5.857c-.518,0-.6.613-.6.979v2.4c0,.365.077.979.6.979a1.424,1.424,0,0,0,.7-.228l2.081-1.2c.389-.225.622-.506.622-.75s-.233-.525-.623-.751L2.045.978A1.464,1.464,0,0,0,1.345.75Z" transform="translate(9.75 11.521)" fill="#7b7e81"/><path d="M0,0H24V24H0Z" fill="none" opacity="0"/></g></g></svg>