<svg xmlns="http://www.w3.org/2000/svg" viewBox="0 0 22 17.032">
  <g id="Online_course" data-name="Online course" transform="translate(-8 -64)">
    <path id="Path_125880" data-name="Path 125880" d="M28.226,64H12.613a1.777,1.777,0,0,0-1.744,1.45A1.779,1.779,0,0,0,9.45,66.869,1.777,1.777,0,0,0,8,68.613V79.258a1.776,1.776,0,0,0,1.774,1.774H25.387a1.777,1.777,0,0,0,1.744-1.45,1.779,1.779,0,0,0,1.419-1.419A1.777,1.777,0,0,0,30,76.419V65.774A1.776,1.776,0,0,0,28.226,64ZM8.71,68.613a1.066,1.066,0,0,1,1.065-1.065H25.387a1.066,1.066,0,0,1,1.065,1.065v.355H8.71ZM26.452,79.258a1.066,1.066,0,0,1-1.065,1.065H9.774A1.066,1.066,0,0,1,8.71,79.258V69.677H26.452Zm1.419-1.419a1.066,1.066,0,0,1-.71,1V68.613a1.776,1.776,0,0,0-1.774-1.774H10.19a1.066,1.066,0,0,1,1-.71H26.806a1.066,1.066,0,0,1,1.065,1.065Zm1.419-1.419a1.066,1.066,0,0,1-.71,1V67.194a1.776,1.776,0,0,0-1.774-1.774h-15.2a1.066,1.066,0,0,1,1-.71H28.226a1.066,1.066,0,0,1,1.065,1.064Z" transform="translate(0 0)" fill="#6d6d6d"/>
    <circle id="Ellipse_2735" data-name="Ellipse 2735" cx="0.355" cy="0.355" r="0.355" transform="translate(9.419 67.903)" fill="#6d6d6d"/>
    <circle id="Ellipse_2736" data-name="Ellipse 2736" cx="0.355" cy="0.355" r="0.355" transform="translate(10.839 67.903)" fill="#6d6d6d"/>
    <circle id="Ellipse_2737" data-name="Ellipse 2737" cx="0.355" cy="0.355" r="0.355" transform="translate(12.258 67.903)" fill="#6d6d6d"/>
    <path id="Path_125881" data-name="Path 125881" d="M128.355,222.387h7.806a.355.355,0,0,0,.355-.355v-5.677a.355.355,0,0,0-.355-.355h-7.806a.355.355,0,0,0-.355.355v5.677A.355.355,0,0,0,128.355,222.387Zm.355-5.677h7.1v4.968h-7.1Z" transform="translate(-114.677 -145.258)" fill="#6d6d6d"/>
    <path id="Path_125882" data-name="Path 125882" d="M200.182,242.793a.355.355,0,0,0,.359-.008l1.73-1.065a.355.355,0,0,0,0-.6l-1.73-1.065a.355.355,0,0,0-.541.3v2.129A.355.355,0,0,0,200.182,242.793Zm.528-1.8.7.43-.7.43Z" transform="translate(-183.484 -168.192)" fill="#6d6d6d"/>
    <path id="Path_125883" data-name="Path 125883" d="M165.323,304.355h-.71a.355.355,0,0,0-.71,0h-3.548a.355.355,0,0,0,0,.71H163.9a.355.355,0,1,0,.71,0h.71a.355.355,0,1,0,0-.71Z" transform="translate(-145.258 -229.355)" fill="#6d6d6d"/>
    <path id="Path_125884" data-name="Path 125884" d="M128.355,368.71h7.806a.355.355,0,1,0,0-.71h-7.806a.355.355,0,1,0,0,.71Z" transform="translate(-114.677 -290.516)" fill="#6d6d6d"/>
    <path id="Path_125885" data-name="Path 125885" d="M128.355,392.71h4.968a.355.355,0,1,0,0-.71h-4.968a.355.355,0,1,0,0,.71Z" transform="translate(-114.677 -313.452)" fill="#6d6d6d"/>
    <path id="Path_125886" data-name="Path 125886" d="M264.71,392h-.355a.355.355,0,1,0,0,.71h.355a.355.355,0,1,0,0-.71Z" transform="translate(-244.645 -313.452)" fill="#6d6d6d"/>
  </g>
</svg>
