<!-- <svg xmlns="http://www.w3.org/2000/svg" width="17.666" height="17.667" viewBox="0 0 17.666 17.667"> -->
<svg xmlns="http://www.w3.org/2000/svg" viewBox="0 0 17.666 17.667">
  <g id="search-interface-symbol" transform="translate(-0.006)">
    <g id="_x34__4_" transform="translate(0.006)">
      <g id="Group_432" data-name="Group 432" transform="translate(0)">
        <path id="Path_782" data-name="Path 782" d="M17.505,16.706l-4.561-4.488a7.215,7.215,0,0,0,1.928-4.9A7.375,7.375,0,0,0,7.439,0,7.374,7.374,0,0,0,.006,7.315a7.374,7.374,0,0,0,7.433,7.315A7.475,7.475,0,0,0,12.117,13L16.7,17.5a.578.578,0,0,0,.808,0A.557.557,0,0,0,17.505,16.706ZM7.439,13.5A6.24,6.24,0,0,1,1.15,7.315,6.24,6.24,0,0,1,7.439,1.125a6.24,6.24,0,0,1,6.289,6.189A6.24,6.24,0,0,1,7.439,13.5Z" transform="translate(-0.006)" fill="#fcc74c"/>
      </g>
    </g>
  </g>
</svg>
