<svg xmlns="http://www.w3.org/2000/svg" viewBox="0 0 20 20">
  <g id="vuesax_linear_video-play" data-name="vuesax/linear/video-play" transform="translate(-236 -384)">
    <g id="video-play" transform="translate(236 384)">
      <path id="Vector" d="M16.667,10.833v-5C16.667,1.667,15,0,10.833,0h-5C1.667,0,0,1.667,0,5.833v5C0,15,1.667,16.667,5.833,16.667h5C15,16.667,16.667,15,16.667,10.833Z" transform="translate(1.667 1.667)" fill="none" stroke-linecap="round" stroke-linejoin="round" stroke-width="1.5"/>
      <path id="Vector-2" data-name="Vector" d="M0,0H15.8" transform="translate(2.1 5.925)" fill="none" stroke-linecap="round" stroke-linejoin="round" stroke-width="1.5"/>
      <path id="Vector-3" data-name="Vector" d="M0,0V4.05" transform="translate(7.1 1.758)" fill="none" stroke-linecap="round" stroke-linejoin="round" stroke-width="1.5"/>
      <path id="Vector-4" data-name="Vector" d="M0,0V3.675" transform="translate(12.9 1.758)" fill="none" stroke-linecap="round" stroke-linejoin="round" stroke-width="1.5"/>
      <path id="Vector-5" data-name="Vector" d="M0,2.441v-1C0,.157.908-.368,2.017.274l.867.5.867.5a1.234,1.234,0,0,1,0,2.333l-.867.5-.867.5C.908,5.249,0,4.724,0,3.441v-1Z" transform="translate(8.125 9.601)" fill="none" stroke-linecap="round" stroke-linejoin="round" stroke-width="1.5"/>
      <path id="Vector-6" data-name="Vector" d="M0,0H20V20H0Z" fill="none" opacity="0"/>
    </g>
  </g>
</svg>
