<svg xmlns="http://www.w3.org/2000/svg" viewBox="0 0 100.485 75.224">
  <g id="Group_407" data-name="Group 407" transform="translate(-0.011 282.65)">
    <path id="Path_487" data-name="Path 487" d="M175.376-281.953a5.037,5.037,0,0,1,5.035,5.034,5.037,5.037,0,0,1-5.035,5.034,5.037,5.037,0,0,1-5.035-5.034A5.037,5.037,0,0,1,175.376-281.953Z" transform="translate(-127.83 -0.511)" fill-rule="evenodd"/>
    <path id="Path_488" data-name="Path 488" d="M174.864-282.65a5.223,5.223,0,0,0-5.22,5.22,5.222,5.222,0,0,0,5.22,5.22,5.222,5.222,0,0,0,5.22-5.22A5.222,5.222,0,0,0,174.864-282.65Zm0,.371a4.851,4.851,0,0,1,4.849,4.849,4.852,4.852,0,0,1-4.849,4.849,4.852,4.852,0,0,1-4.849-4.849A4.851,4.851,0,0,1,174.864-282.279Z" transform="translate(-127.318 0)" fill-rule="evenodd"/>
    <path id="Path_489" data-name="Path 489" d="M123.9-253.453s13.928,7.1,32.469.177l2.595,4.114s-9.335-1.228-13.372,4.753q-.5.746-1.036,1.472a12.609,12.609,0,0,0-1.96,10.01l.532,1.6s-4.724-.4-5.323.133c0,0,2.994-8.65-3.327-14.238s-11.244-4.391-11.976-4.125S123.9-253.453,123.9-253.453Z" transform="translate(-92.586 -21.427)" fill-rule="evenodd"/>
    <path id="Path_490" data-name="Path 490" d="M142.268-233.485l.529,1.585a.186.186,0,0,1-.03.173.185.185,0,0,1-.161.07s-2.3-.194-3.886-.13a6.038,6.038,0,0,0-1,.106.712.712,0,0,0-.3.111.185.185,0,0,1-.226.016.185.185,0,0,1-.072-.215s2.957-8.529-3.274-14.039-11.069-4.352-11.79-4.09a.294.294,0,0,1-.258-.012.27.27,0,0,1-.12-.146.721.721,0,0,1,0-.352,24.143,24.143,0,0,1,1.55-3.641.186.186,0,0,1,.249-.081s13.864,7.057,32.32.169a.185.185,0,0,1,.222.075l2.595,4.114a.186.186,0,0,1,0,.2.186.186,0,0,1-.18.084,19.931,19.931,0,0,0-6.85.491,10.68,10.68,0,0,0-6.345,4.181q-.5.75-1.04,1.478A12.43,12.43,0,0,0,142.268-233.485Zm-18.793-20.233a28.656,28.656,0,0,0-1.325,2.981,3.135,3.135,0,0,0-.106.454c1.042-.323,5.9-1.242,12.05,4.2,5.613,4.963,3.987,12.3,3.5,14.054l.046-.011a6.42,6.42,0,0,1,1.068-.114c1.267-.052,2.986.06,3.652.109l-.444-1.332-.006-.023a12.788,12.788,0,0,1,1.992-10.155q.531-.722,1.032-1.466a11.047,11.047,0,0,1,6.557-4.332,20.475,20.475,0,0,1,6.609-.539l-2.312-3.665C138.413-247.135,125.1-252.95,123.475-253.718Z" transform="translate(-92.077 -20.915)" fill-rule="evenodd"/>
    <path id="Path_491" data-name="Path 491" d="M309.652-220.549a5.037,5.037,0,0,1-.569,7.1,5.037,5.037,0,0,1-7.1-.569,5.037,5.037,0,0,1,.569-7.1A5.037,5.037,0,0,1,309.652-220.549Z" transform="translate(-225.727 -44.275)" fill-rule="evenodd"/>
    <path id="Path_492" data-name="Path 492" d="M309.282-221.181a5.222,5.222,0,0,0-7.358-.589,5.222,5.222,0,0,0-.59,7.358,5.222,5.222,0,0,0,7.358.59A5.222,5.222,0,0,0,309.282-221.181Zm-.282.241a4.851,4.851,0,0,1-.548,6.836,4.851,4.851,0,0,1-6.836-.548,4.851,4.851,0,0,1,.548-6.835A4.851,4.851,0,0,1,309-220.94Z" transform="translate(-225.223 -43.764)" fill-rule="evenodd"/>
    <path id="Path_493" data-name="Path 493" d="M250.937-243.7s3.627,15.205,20.916,24.834l-1.45,4.643s-5.117-7.9-12.288-7.1q-.894.1-1.792.166a12.609,12.609,0,0,0-8.891,5l-.871,1.441s-2.759-3.855-3.552-3.966c0,0,8.527-3.329,8.683-11.764s-3.947-11.408-4.624-11.793S250.937-243.7,250.937-243.7Z" transform="translate(-184.351 -28.587)" fill-rule="evenodd"/>
    <path id="Path_494" data-name="Path 494" d="M247.073-216.559l-.864,1.43a.186.186,0,0,1-.152.089.186.186,0,0,1-.158-.077,38.879,38.879,0,0,0-2.421-3.043,6.041,6.041,0,0,0-.73-.695.716.716,0,0,0-.277-.153.186.186,0,0,1-.159-.162.186.186,0,0,1,.117-.194s8.411-3.278,8.565-11.6-3.863-11.249-4.53-11.628a.294.294,0,0,1-.158-.2.27.27,0,0,1,.034-.186.718.718,0,0,1,.266-.232,24.148,24.148,0,0,1,3.777-1.18.185.185,0,0,1,.223.137s3.616,15.131,20.826,24.716a.186.186,0,0,1,.087.217l-1.45,4.643a.185.185,0,0,1-.152.129.186.186,0,0,1-.181-.083,19.924,19.924,0,0,0-4.815-4.9,10.68,10.68,0,0,0-7.3-2.12q-.9.1-1.8.166A12.428,12.428,0,0,0,247.073-216.559Zm3.219-27.426a28.648,28.648,0,0,0-3.129.924,3.135,3.135,0,0,0-.414.213c.921.584,4.77,3.685,4.617,11.9-.139,7.49-6.782,11.013-8.433,11.773l.038.028a6.423,6.423,0,0,1,.78.739c.861.931,1.89,2.312,2.285,2.851l.726-1.2.014-.02a12.79,12.79,0,0,1,9.023-5.068q.894-.064,1.785-.165a11.049,11.049,0,0,1,7.55,2.183,20.483,20.483,0,0,1,4.7,4.682l1.292-4.136C254.966-228.344,250.763-242.247,250.292-243.985Z" transform="translate(-183.84 -28.075)" fill-rule="evenodd"/>
    <path id="Path_495" data-name="Path 495" d="M43.489-220.549a5.037,5.037,0,0,0,.569,7.1,5.037,5.037,0,0,0,7.1-.569,5.037,5.037,0,0,0-.569-7.1A5.037,5.037,0,0,0,43.489-220.549Z" transform="translate(-31.026 -44.275)" fill-rule="evenodd"/>
    <path id="Path_496" data-name="Path 496" d="M42.837-221.181a5.222,5.222,0,0,0,.59,7.358,5.222,5.222,0,0,0,7.358-.59,5.222,5.222,0,0,0-.59-7.358A5.222,5.222,0,0,0,42.837-221.181Zm.282.241a4.851,4.851,0,0,1,6.836-.548,4.851,4.851,0,0,1,.548,6.835,4.851,4.851,0,0,1-6.836.548A4.851,4.851,0,0,1,43.119-220.94Z" transform="translate(-30.514 -43.764)" fill-rule="evenodd"/>
    <path id="Path_497" data-name="Path 497" d="M50.426-243.7S46.8-228.491,29.509-218.862l1.45,4.643s5.117-7.9,12.288-7.1q.894.1,1.792.166a12.609,12.609,0,0,1,8.891,5l.871,1.441s2.759-3.855,3.552-3.966c0,0-8.526-3.329-8.683-11.764s3.947-11.408,4.624-11.793S50.426-243.7,50.426-243.7Z" transform="translate(-21.648 -28.587)" fill-rule="evenodd"/>
    <path id="Path_498" data-name="Path 498" d="M53.291-216.559a12.428,12.428,0,0,0-8.752-4.92q-.9-.065-1.8-.166a10.68,10.68,0,0,0-7.3,2.12,19.927,19.927,0,0,0-4.815,4.9.186.186,0,0,1-.181.083.186.186,0,0,1-.152-.129l-1.45-4.643.087-.217c17.21-9.585,20.826-24.716,20.826-24.716a.186.186,0,0,1,.223-.137,24.156,24.156,0,0,1,3.777,1.18.717.717,0,0,1,.266.232.27.27,0,0,1,.034.186.294.294,0,0,1-.158.2c-.667.379-4.685,3.317-4.53,11.628s8.565,11.6,8.565,11.6a.185.185,0,0,1,.117.194.185.185,0,0,1-.159.162.716.716,0,0,0-.277.153,6.038,6.038,0,0,0-.73.695,38.863,38.863,0,0,0-2.421,3.043.186.186,0,0,1-.158.077.186.186,0,0,1-.152-.089Zm-3.219-27.426c-.47,1.736-4.673,15.64-20.828,24.7l1.292,4.136a20.48,20.48,0,0,1,4.7-4.682,11.048,11.048,0,0,1,7.55-2.183q.89.1,1.785.164a12.79,12.79,0,0,1,9.023,5.068.174.174,0,0,1,.014.02l.726,1.2c.394-.539,1.424-1.921,2.285-2.851a6.4,6.4,0,0,1,.78-.739l.038-.028c-1.651-.76-8.294-4.283-8.433-11.773-.152-8.211,3.7-11.312,4.617-11.9a3.141,3.141,0,0,0-.414-.213A28.659,28.659,0,0,0,50.071-243.985Z" transform="translate(-21.16 -28.075)" fill-rule="evenodd"/>
    <path id="Path_499" data-name="Path 499" d="M128.162-156.584a19.8,19.8,0,0,1,16.4-8.619,19.8,19.8,0,0,1,16.4,8.619Z" transform="translate(-96.832 -86.19)" fill-rule="evenodd"/>
    <path id="Path_500" data-name="Path 500" d="M127.5-157.2a.185.185,0,0,0-.011.191.185.185,0,0,0,.164.1h32.793a.185.185,0,0,0,.164-.1.185.185,0,0,0-.011-.191,19.984,19.984,0,0,0-16.55-8.7A19.983,19.983,0,0,0,127.5-157.2Zm32.592-.081a19.616,19.616,0,0,0-16.042-8.248,19.616,19.616,0,0,0-16.042,8.248Z" transform="translate(-96.319 -85.678)" fill-rule="evenodd"/>
    <path id="Path_501" data-name="Path 501" d="M140.182-129.07a1.985,1.985,0,0,1,.961-.248h15.49v9.581H143.325a1.464,1.464,0,0,0-1.464,1.464v20.36h-8.916v-20.36a1.464,1.464,0,0,0-1.464-1.464H118.175v-9.581h15.28a1.984,1.984,0,0,1,.941.238l1.986,1.071a1.983,1.983,0,0,0,1.9-.01Z" transform="translate(-89.5 -112.524)" fill-rule="evenodd"/>
    <path id="Path_502" data-name="Path 502" d="M139.581-129.744l-1.9,1.05a1.8,1.8,0,0,1-1.724.01l-1.986-1.071a2.168,2.168,0,0,0-1.029-.26h-15.28a.185.185,0,0,0-.185.186v9.581a.185.185,0,0,0,.185.186H130.97a1.278,1.278,0,0,1,1.278,1.278v20.36a.185.185,0,0,0,.185.185h8.916a.185.185,0,0,0,.185-.185v-20.36a1.278,1.278,0,0,1,1.278-1.278h13.307a.186.186,0,0,0,.186-.186v-9.581a.186.186,0,0,0-.186-.186h-15.49A2.168,2.168,0,0,0,139.581-129.744Zm-21.732.1v9.21H130.97a1.649,1.649,0,0,1,1.649,1.649v20.174h8.545v-20.174a1.649,1.649,0,0,1,1.649-1.649h13.121v-9.21h-15.3a1.8,1.8,0,0,0-.871.225l-1.9,1.05a2.169,2.169,0,0,1-2.08.012l-1.986-1.071a1.8,1.8,0,0,0-.853-.215Z" transform="translate(-88.987 -112.013)" fill-rule="evenodd"/>
    <path id="Path_503" data-name="Path 503" d="M38.778-137.053s-7.214-6.93-14.057,1.523h0a2.28,2.28,0,0,0-.5,1.655c.118,1.164.934,2.906,4.548,3.653a24.825,24.825,0,0,1,4.358,1.357c2.184.873,4.775,2.253,5.4,3.883,1.131,2.928,1.8,4.142-1.93,10.9,0,0,1.133-7.741-6.425-8.453q-.311-.029-.619-.078c-1.486-.236-9.65-1.674-11.745-3.726q-.471-.46-.963-.9c-1.03-.937-2.718-3.485,1.654-8.442h0a20.057,20.057,0,0,1,15.931-5.874,5.025,5.025,0,0,1,3.881,2.451A2.857,2.857,0,0,1,38.778-137.053Z" transform="translate(-11.48 -103.485)" fill-rule="evenodd"/>
    <path id="Path_504" data-name="Path 504" d="M38.139-137.43a.186.186,0,0,0,.183.043.186.186,0,0,0,.127-.139,3.042,3.042,0,0,0-.483-2.182,5.208,5.208,0,0,0-4.023-2.54,20.245,20.245,0,0,0-16.086,5.935h0c-2.231,2.53-2.9,4.45-2.9,5.852a3.78,3.78,0,0,0,1.259,2.85q.491.436.958.892a9.482,9.482,0,0,0,3.248,1.707,56.716,56.716,0,0,0,8.6,2.069q.314.051.631.08c7.366.694,6.258,8.241,6.258,8.241a.186.186,0,0,0,.124.2.185.185,0,0,0,.222-.086c2.263-4.1,2.914-6.193,2.835-7.844a10.09,10.09,0,0,0-.895-3.213,4.71,4.71,0,0,0-1.606-1.9,17.249,17.249,0,0,0-3.9-2.088,25,25,0,0,0-4.388-1.366c-3.481-.72-4.288-2.369-4.4-3.49a2.094,2.094,0,0,1,.457-1.519h0a10.244,10.244,0,0,1,5.945-3.992C34.677-140.76,38.139-137.43,38.139-137.43Zm-.013-.5a2.9,2.9,0,0,0-.478-1.583,4.838,4.838,0,0,0-3.738-2.361,19.867,19.867,0,0,0-15.775,5.812c-2.141,2.428-2.81,4.26-2.806,5.605a3.416,3.416,0,0,0,1.136,2.576q.5.44.969.9a9.109,9.109,0,0,0,3.113,1.623,56.249,56.249,0,0,0,8.533,2.053q.3.049.607.077c6.169.581,6.693,5.728,6.65,7.8,1.884-3.519,2.456-5.394,2.384-6.9a9.743,9.743,0,0,0-.87-3.1,4.339,4.339,0,0,0-1.485-1.739,16.866,16.866,0,0,0-3.818-2.04,24.637,24.637,0,0,0-4.324-1.346c-3.748-.775-4.573-2.609-4.695-3.817a2.465,2.465,0,0,1,.538-1.789h0a10.594,10.594,0,0,1,6.163-4.122C34.054-141.018,37.209-138.7,38.126-137.935Z" transform="translate(-10.969 -102.974)" fill-rule="evenodd"/>
    <path id="Path_505" data-name="Path 505" d="M3.1-104.591s-.342,8.3,8.218,8.681q.445.019.887.075c2.165.289,12.107,1.9,12.186,6.325.089,4.968-5.234,8.866-9.492,10.823,0,0-11.089,5.417-14.194-2.833,0,0,5.533,5.446,11.136,1.234q.3-.228.626-.426c1.469-.912,5.988-4.284-.141-7.462,0,0-5.436-.939-8.932-3.813A7.142,7.142,0,0,1,.834-97.9C.965-100.034,1.457-103.113,3.1-104.591Z" transform="translate(-0.511 -130.671)" fill-rule="evenodd"/>
    <path id="Path_506" data-name="Path 506" d="M11.757-88.507c-.435-.079-5.61-1.069-8.989-3.848a7.328,7.328,0,0,1-2.63-6.066c.134-2.177.652-5.312,2.331-6.819a.185.185,0,0,1,.2-.03.185.185,0,0,1,.106.175A9.068,9.068,0,0,0,5.384-98.6a8.338,8.338,0,0,0,5.433,2q.453.019.9.077a32.8,32.8,0,0,1,8.54,2.285c2.131,1,3.774,2.387,3.807,4.22a8.548,8.548,0,0,1-2.118,5.512,21.312,21.312,0,0,1-7.479,5.481,20.08,20.08,0,0,1-6,1.7c-3.236.331-6.864-.405-8.454-4.63A.185.185,0,0,1,.1-82.187a.185.185,0,0,1,.231.023s5.412,5.339,10.895,1.218c.206-.156.42-.3.64-.435a8.675,8.675,0,0,0,2.087-1.777,3.3,3.3,0,0,0,.806-1.8C14.829-86.072,14.089-87.293,11.757-88.507ZM2.412-104.659c-1.37,1.537-1.784,4.305-1.9,6.26A6.957,6.957,0,0,0,3-92.641c3.461,2.846,8.845,3.774,8.845,3.774l.054.018c2.552,1.323,3.3,2.7,3.22,3.914a3.668,3.668,0,0,1-.887,2.011,9.08,9.08,0,0,1-2.181,1.86q-.315.192-.611.415c-4.6,3.456-9.149.555-10.763-.722,1.643,3.383,4.869,3.961,7.758,3.666a19.668,19.668,0,0,0,5.874-1.661,20.928,20.928,0,0,0,7.349-5.379A8.183,8.183,0,0,0,23.7-90.018a3.2,3.2,0,0,0-1.036-2.2A8.933,8.933,0,0,0,20.1-93.909a32.355,32.355,0,0,0-8.431-2.253q-.434-.055-.872-.074a8.692,8.692,0,0,1-5.666-2.091A9.27,9.27,0,0,1,2.412-104.659Z" transform="translate(0 -130.159)" fill-rule="evenodd"/>
    <path id="Path_507" data-name="Path 507" d="M301.874-123.424A.732.732,0,0,0,302.1-124a.732.732,0,0,0-.295-.547,9.808,9.808,0,0,0-5.691-1.8,9.439,9.439,0,0,0-9.588,9.274,9.439,9.439,0,0,0,9.588,9.274,9.676,9.676,0,0,0,7.874-3.984l6.453,3.453a16.831,16.831,0,0,1-14.44,8.183,16.841,16.841,0,0,1-16.833-16.833,16.841,16.841,0,0,1,16.833-16.833,16.843,16.843,0,0,1,15.194,9.584l-3.192,1.484.015.017-6.583,3.214a.229.229,0,0,1-.289-.076l-1.212-1.751a.23.23,0,0,1,.032-.3Z" transform="translate(-210.89 -109.221)" fill-rule="evenodd"/>
    <path id="Path_508" data-name="Path 508" d="M307.657-123.135a.187.187,0,0,1-.066.054l-6.583,3.214a.415.415,0,0,1-.524-.137l-1.212-1.751a.416.416,0,0,1,.058-.54l1.9-1.779a.546.546,0,0,0,.172-.43.544.544,0,0,0-.217-.405,9.624,9.624,0,0,0-5.583-1.77,9.253,9.253,0,0,0-9.4,9.088,9.253,9.253,0,0,0,9.4,9.087,9.49,9.49,0,0,0,7.723-3.907.186.186,0,0,1,.239-.055l6.453,3.453a.187.187,0,0,1,.092.115.186.186,0,0,1-.02.145,17.017,17.017,0,0,1-14.6,8.273,17.028,17.028,0,0,1-17.02-17.02,17.028,17.028,0,0,1,17.02-17.02,17.029,17.029,0,0,1,15.362,9.69.187.187,0,0,1,.007.143.186.186,0,0,1-.1.106Zm2.779-1.7a16.656,16.656,0,0,0-14.944-9.309A16.655,16.655,0,0,0,278.846-117.5a16.655,16.655,0,0,0,16.647,16.647,16.643,16.643,0,0,0,14.178-7.925l-6.137-3.284a9.867,9.867,0,0,1-7.929,3.93,9.626,9.626,0,0,1-9.775-9.46,9.626,9.626,0,0,1,9.775-9.46,10,10,0,0,1,5.8,1.841.919.919,0,0,1,.37.686.92.92,0,0,1-.29.723l-1.9,1.779a.043.043,0,0,0-.006.056l1.212,1.751a.043.043,0,0,0,.054.014l6.5-3.173a.187.187,0,0,1,.072-.059Z" transform="translate(-210.377 -108.708)" fill-rule="evenodd"/>
  </g>
</svg>
