<svg xmlns="http://www.w3.org/2000/svg" width="25.79" height="29.038" viewBox="0 0 25.79 29.038"><g transform="translate(-1.961)"><path d="M172.191,128.632a14.412,14.412,0,0,1-5.959-1.275.415.415,0,1,1,.341-.756,13.73,13.73,0,0,0,11.131.046c.346-.152.688-.32,1.019-.5a.415.415,0,1,1,.4.728c-.351.191-.715.369-1.081.531A14.41,14.41,0,0,1,172.191,128.632Z" transform="translate(-158.959 -99.594)" fill="#7b86fa"/><path d="M169.763,78.181a14.535,14.535,0,0,0-6.921,1.753q-.45.244-.879.518-.317.2-.623.42l-.006,0a1.723,1.723,0,0,0-.676,1.105c-.035.2-.07.394-.1.6.149-.136.3-.274.453-.4.261-.217.535-.429.814-.628q.288-.206.587-.4.4-.258.83-.488a13.691,13.691,0,0,1,15.105,22.7c-.285.23-.581.449-.881.653a.415.415,0,0,0,.467.686c.318-.216.632-.45.934-.692a14.52,14.52,0,0,0-9.1-25.832Z" transform="translate(-156.531 -78.181)" fill="#fcd462"/><g transform="translate(1.961 3.641)"><g transform="translate(0 0)"><g transform="translate(0 0)"><path d="M253.968,423.182c-.185.046-.374.087-.562.122a.9.9,0,0,0,.329,1.777c.223-.041.448-.09.669-.145a.9.9,0,0,0-.437-1.753Z" transform="translate(-240.46 -402.793)" fill="#7b86fa"/><path d="M412.722,137.99a.9.9,0,0,0,1.715-.568c-.071-.216-.151-.432-.235-.643a.9.9,0,1,0-1.678.671C412.6,137.626,412.662,137.808,412.722,137.99Z" transform="translate(-392.533 -129.711)" fill="#7b86fa"/><path d="M321.808,394.061c-.159.105-.324.207-.49.3a.9.9,0,1,0,.9,1.565c.2-.114.393-.235.583-.36a.9.9,0,0,0-1-1.508Z" transform="translate(-305.365 -374.962)" fill="#7b86fa"/><path d="M429.441,208.18a.9.9,0,1,0-1.806.071c.007.191.009.384.005.574a.9.9,0,1,0,1.806.04C429.452,208.637,429.45,208.407,429.441,208.18Z" transform="translate(-406.974 -197.377)" fill="#7b86fa"/><path d="M378.6,344.25a.9.9,0,0,0-1.265.181c-.115.153-.235.3-.359.449a.9.9,0,0,0,.1,1.274c.022.018.043.035.066.051a.9.9,0,0,0,1.207-.153c.148-.173.292-.354.429-.536A.9.9,0,0,0,378.6,344.25Z" transform="translate(-358.554 -327.527)" fill="#7b86fa"/><path d="M415.132,279.393a.9.9,0,0,0-1.132.592c-.057.182-.12.365-.189.544a.9.9,0,0,0,1.688.643c.081-.213.156-.43.224-.647A.9.9,0,0,0,415.132,279.393Z" transform="translate(-393.762 -265.937)" fill="#7b86fa"/><path d="M9.566,22.207a9.329,9.329,0,0,1-2.317-.736l-.026-.014c-.173-.082-.346-.169-.514-.26h0a9.638,9.638,0,0,1-.9-.562A9.428,9.428,0,0,1,5.847,5.19l.032-.023a9.444,9.444,0,0,1,10.585-.085L15.759,6.1c-.2.284-.076.491.268.46l3.066-.275a.505.505,0,0,0,.457-.661L18.727,2.66c-.092-.333-.328-.372-.525-.089l-.708,1.022A11.158,11.158,0,0,0,9.318,1.856q-.434.075-.856.183H8.457l-.032.009a11.141,11.141,0,0,0-6.178,4.14c-.013.015-.026.03-.039.047-.051.069-.1.14-.152.21-.081.116-.162.234-.239.353-.01.014-.017.029-.025.043a11.139,11.139,0,0,0-1.78,6.57c0,.008,0,.015,0,.023.01.227.028.456.053.683,0,.015,0,.028.007.043.025.227.057.455.1.683a11.15,11.15,0,0,0,3.144,6.047l.012.012,0,0a11.384,11.384,0,0,0,1.439,1.2,11.14,11.14,0,0,0,4.48,1.875.9.9,0,0,0,.319-1.779Z" transform="translate(0 -1.688)" fill="#7b86fa"/><path d="M206.718,83.2a.731.731,0,0,0-.731.731v7.283l6.661,3.443a.731.731,0,0,0,.671-1.3l-5.87-3.035V83.929A.731.731,0,0,0,206.718,83.2Z" transform="translate(-196.035 -79.26)" fill="#7b86fa"/></g></g></g></g></svg>