<svg id="Group_65892" data-name="Group 65892" xmlns="http://www.w3.org/2000/svg" viewBox="0 0 16.53 14.475">
  <path id="Path_595" data-name="Path 595" d="M15.279,6.344A6.347,6.347,0,0,0,8.935,0H6.344a6.344,6.344,0,0,0,0,12.688H8.935A6.347,6.347,0,0,0,15.279,6.344Z" transform="translate(1.251 0.894)" fill="#fbc74b" fill-rule="evenodd"/>
  <path id="Path_596" data-name="Path 596" d="M7.595,14.118l-.357.357A7.237,7.237,0,1,1,7.237,0l.357.357a6.88,6.88,0,0,0,0,13.76Z" fill="#fbc74b" fill-rule="evenodd"/>
  <path id="Path_597" data-name="Path 597" d="M.18,4.076,3.228,7.123A.617.617,0,1,0,4.1,6.253L1.487,3.641,4.1,1.028A.617.617,0,0,0,3.228.158L.18,3.206a.615.615,0,0,0,0,.87Zm3.561.039a.261.261,0,0,0,.234.127c.318,0,1.189-.029,2.335-.071a.374.374,0,0,0,0-.748L3.976,3.338a.274.274,0,0,0-.246.134A.739.739,0,0,0,3.742,4.114Z" transform="translate(5.378 3.225)" fill="#575757"/>
</svg>
